<svg xmlns="http://www.w3.org/2000/svg" width="91.9" height="36" style="overflow:visible;enable-background:new 0 0 91.9 36" xml:space="preserve">
    <path d="M13 1.2C6 1.2 0 6.2 0 14c0 7 5.3 12.5 12.9 12.5 7 0 13-5 13-12.8.1-7-5.3-12.5-12.9-12.5m0 23.7c-4.6 0-7.9-4.7-7.9-11.2 0-6.4 3.2-11 7.9-11s7.9 4.7 7.9 11.2c-.1 6.1-3.2 11-7.9 11m73-14.2v1.1l1.4.3c.5.1.6.5.3 1.3l-3.2 7.8c-.1.3-.3.3-.4 0l-3-7.8c-.3-.8-.1-1.2.4-1.3l1.4-.3v-1H70.3v1l1.4.3c.5.1.7.5.4 1.3L69 21.5c-.1.3-.3.3-.4 0l-3.2-8.2c-.3-.8-.1-1.2.4-1.3l1.4-.3v-1h-7.9v1.1l.7.2c.5.1.8.4 1.1.9L66.4 26h2.4l5.3-13.1c.3-.7.6-1 1.2-1h.2c.5 0 .8.2 1.1.8l5.6 13.6-1.5 3.6c-1 2.4-1.7 2.8-2.6 2.8-.4 0-.8-.1-1.2-.1-1.1 0-1.7.8-1.7 1.6 0 .9.8 1.6 2 1.6 1.7 0 3.5-1.4 4.9-4.8l7.6-17.9c.4-.8.8-1.2 1.5-1.3l.8-.1v-1.1h-6zm-49.1 14-5.8.7c-1.9.2-2.5-.4-2.5-1.4 0-1.2 1.3-2.1 5.6-2.1h.1c3.2 0 6.9-1.9 6.9-6.1 0-1.3-.5-2.5-1.4-3.5-.3-.7-.5-1.4-.4-2.2 0-3.1 2.1-4.8 4.3-4.8.9 0 1.2.1 1.2.8v.5c0 1.1.9 2.1 2.2 2.1s2.2-1.1 2.2-2.2c0-1.7-1.6-3-4.5-3-4 0-7.1 2.6-7.1 6.5v.8c-1-.4-2.1-.6-3.3-.6-3.2 0-6.9 1.9-6.9 6.1 0 1.9 1.1 3.7 3 4.8-2.8.4-4.4 1.9-4.4 4.2s1.9 4.1 5.4 3.7l5.1-.6c2.5-.3 3.4.6 3.4 1.9 0 2.3-2.2 4.2-5.6 4.2-2.8 0-3.8-1-3.8-2.4v-.7c0-.8-.5-1.4-1.4-1.5-1 0-1.6.7-1.6 1.7 0 2.3 2.2 4.4 6.7 4.4 5.1 0 8.3-3.3 8.3-7.1.1-3-2.3-4.7-5.7-4.2m-2.6-13.2c1.6 0 3 1.9 3 4.7 0 2.4-1.1 4.5-2.9 4.5-1.7 0-3-1.9-3-4.7 0-2.4 1.1-4.5 2.9-4.5"/>
    <path d="M57.9 24.2V0l-6.2 1.6v.7l1.7.6c.3.1.4.3.4.6v20.6c0 .4-.3.7-.8.7h-3.3c-.5 0-.8-.3-.8-.7v-14l-6.2 1.6v.7l1.7.6c.3.1.4.3.4.6v10.6c0 .3-.2.5-.4.5l-1.4.2V26h17v-1.1l-1.7-.2c-.2 0-.4-.2-.4-.5"/>
    <path style="fill:none" d="M0 0h91.9v36H0z"/>
</svg>
