<svg xmlns="http://www.w3.org/2000/svg" width="266.5" height="339.8" style="overflow:visible;enable-background:new 0 0 266.5 339.8" xml:space="preserve">
    <style>
        .st0{fill:#fff}.st2{fill:#545558}.st4{fill:#010000}.st5{fill:#ea4043}
    </style>
    <path class="st0" d="M210.6 84.4c-6 8.1-14.8 11.2-19.7 6.8-4.9-4.4-3.9-14.5 2.1-22.6s14.8-11.2 19.7-6.8c4.9 4.4 3.9 14.5-2.1 22.6"/>
    <path style="fill:#e59391" d="m189 76.3 18.2 11.9 6.7-6.1-22.3-14.5z"/>
    <path class="st2" d="m227.8 47.2-10.1-6.6-14.1 6.4 24.1 15.7z"/>
    <path style="fill:#a6a6a8" d="M221.4 72.8 197 56.9l-4 6.1-1.4 4.6 22.3 14.5 3.6-3.2z"/>
    <path class="st2" d="m197 56.9 24.4 15.9 6.3-9.7v-.4L203.6 47l-.3.2z"/>
    <path d="m240.2 54.5-13.9 6.4-13.9-9.6-.8-15.4L224.1 18l8.1-2.8 21 15.1-.9 10z"/>
    <path d="m231.582 18.934 1.86-19.008 1.99.194-1.86 19.009zm17.066 11.519 16.91-8.883.93 1.77-16.91 8.884z"/>
    <path class="st4" d="M235.1 95c-1.7-.2-14.1-14.9-13.5-32.5s14.7-31.6 15.8-31.5c1.1.1 14.1 14.9 13.5 32.5-.6 17.7-14.3 31.6-15.8 31.5"/>
    <path class="st4" d="M173.6 44.6c.5 1.7 17.4 11.6 35.1 7.9 17.7-3.7 29.2-20.3 28.9-21.4-.3-1.1-17.4-11.6-35.1-7.9-17.6 3.8-29.3 19.9-28.9 21.4"/>
    <path class="st0" d="m210.3 98.4-3.4 2.3-4.1-1 2.4 3.4-1 4 3.4-2.3 4 1-2.3-3.4zm-34.4-12.5-2.9 2-3.5-.8 2.1 2.9-.9 3.4 2.9-2 3.5.9-2-2.9zm2.1-12.2-2.5 1.8-3-.8 1.7 2.6-.7 2.9 2.5-1.7 3 .7-1.8-2.5zm61.3-51.1c-1.8 2.2-5.1 2.5-7.3.7s-2.5-5.1-.7-7.3 5.1-2.5 7.3-.7 2.5 5.1.7 7.3"/>
    <path class="st5" d="M238.5 22c-1.5 1.8-4.1 2-5.9.6-1.8-1.5-2-4.1-.6-5.9 1.5-1.8 4.1-2 5.9-.6 1.8 1.5 2.1 4.1.6 5.9"/>
    <path d="M238.4 19.2c0 1.7-1.4 3.1-3.1 3.1s-3.1-1.4-3.1-3.1c0-1.7 1.4-3.1 3.1-3.1s3.1 1.4 3.1 3.1"/>
    <path class="st0" d="M253.6 34.2c-1.8 2.2-5.1 2.5-7.3.7s-2.5-5.1-.7-7.3 5.1-2.5 7.3-.7 2.5 5.1.7 7.3"/>
    <path class="st5" d="M252.8 33.5c-1.5 1.8-4.1 2-5.9.6-1.8-1.5-2-4.1-.6-5.9 1.5-1.8 4.1-2 5.9-.6 1.8 1.5 2.1 4.1.6 5.9"/>
    <path d="M252.7 30.8c0 1.7-1.4 3.1-3.1 3.1s-3.1-1.4-3.1-3.1c0-1.7 1.4-3.1 3.1-3.1s3.1 1.4 3.1 3.1"/>
    <path d="M176.1 115 55 258m80.7-62.5-121.1 143m108-205L1.5 276.5" style="fill:none;stroke:#000;stroke-width:4;stroke-miterlimit:10"/>
</svg>
