<svg xmlns="http://www.w3.org/2000/svg" xmlns:xlink="http://www.w3.org/1999/xlink" width="636.6" height="630" style="overflow:visible;enable-background:new 0 0 636.6 630" xml:space="preserve">
    <style>
        .st1{clip-path:url(#SVGID_2_);fill:#515457}.st4{clip-path:url(#SVGID_4_)}.st5{fill:#eb3f43}.st10,.st6{clip-path:url(#SVGID_4_);fill:#515457}.st10{clip-path:url(#SVGID_6_)}.st13{clip-path:url(#SVGID_8_);fill:#fff}
    </style>
    <defs>
        <path id="SVGID_1_" d="M0 0h636.6v630H0z"/>
    </defs>
    <clipPath id="SVGID_2_">
        <use xlink:href="#SVGID_1_" style="overflow:visible"/>
    </clipPath>
    <path d="m404.6 556-286.4 65c-10.8 2.5-21.6-4.3-24.1-15.2L.5 193.6C-2 182.8 4.8 172 15.7 169.5l286.4-65c10.8-2.5 21.6 4.3 24.1 15.2l93.5 412.2c2.5 10.8-4.3 21.6-15.1 24.1" style="clip-path:url(#SVGID_2_)"/>
    <path class="st1" d="m296.5 172-186.8 42.4c-10.4 2.4-20.9-4.2-23.3-14.7-2.4-10.4 4.2-20.9 14.7-23.3L287.9 134c10.4-2.4 20.9 4.2 23.3 14.7 2.4 10.5-4.2 21-14.7 23.3"/>
    <path class="st1" d="M182.5 197.9 54.3 227c-10.4 2.4-20.9-4.2-23.3-14.7-2.4-10.4 4.2-20.9 14.7-23.3l128.2-29c10.4-2.4 20.9 4.2 23.3 14.7 2.3 10.4-4.3 20.8-14.7 23.2"/>
    <path d="M308.3 149.3c2 8.8-3.5 17.6-12.4 19.6-8.8 2-17.6-3.5-19.6-12.4-2-8.8 3.5-17.6 12.4-19.6 8.8-2 17.6 3.6 19.6 12.4" style="clip-path:url(#SVGID_2_);fill:#eb3f43"/>
    <path d="M308.3 149.3c2 8.8-3.5 17.6-12.4 19.6-8.8 2-17.6-3.5-19.6-12.4-2-8.8 3.5-17.6 12.4-19.6 8.8-2 17.6 3.6 19.6 12.4z" style="clip-path:url(#SVGID_2_);fill:none;stroke:#eee;stroke-width:3;stroke-miterlimit:10"/>
    <defs>
        <path id="SVGID_3_" d="M0 0h636.6v630H0z"/>
    </defs>
    <clipPath id="SVGID_4_">
        <use xlink:href="#SVGID_3_" style="overflow:visible"/>
    </clipPath>
    <g class="st4">
        <path class="st5" d="M207.9 441.7c-4.4-11.8-6.2-23-5.4-33.4.8-10.4 3.2-20.2 7.2-29.4s8.1-18 12.5-26.5 7.8-17 10.4-25.3 2.8-16.9.9-25.6c-1.7-7.3-4.6-13.6-8.9-18.9-4.3-5.3-9.7-9.1-16.3-11.5-6.6-2.3-14.3-2.5-23.2-.5-8.9 2-16.9 5.9-24 11.7-7.1 5.8-12.9 13.2-17.6 22.1l-20.1-11.7c6-10.7 13.8-20.4 23.4-29 9.6-8.6 21.5-14.5 35.6-17.7 13.1-3 25.1-3 35.9-.2 10.8 2.9 19.9 8.3 27.4 16.4 7.5 8 12.7 18.4 15.6 31.1 2.4 10.6 2.4 20.5-.1 29.8s-5.9 18.4-10.3 27.1c-4.4 8.8-8.7 17.7-12.8 26.8-4.1 9.1-6.9 18.4-8.4 28s-.3 19.9 3.7 30.8l-25.5 5.9zm32 77.5c-6.1 1.4-11.7.4-16.8-2.9-5.1-3.3-8.3-8.2-9.8-14.8-1.6-7-.8-13.1 2.3-18.3 3.1-5.2 7.8-8.4 13.9-9.8 5.9-1.3 11.4-.4 16.6 2.9 5.2 3.3 8.6 8.4 10.2 15.5 1.5 6.6.6 12.5-2.7 17.6-3.2 5.2-7.8 8.5-13.7 9.8z"/>
    </g>
    <path class="st4" d="M487.5 462.9H193.8c-11.1 0-20.1-9-20.1-20.1V20.1c0-11.1 9-20.1 20.1-20.1h293.7c11.1 0 20.1 9 20.1 20.1v422.7c.1 11.1-9 20.1-20.1 20.1"/>
    <path class="st6" d="M467.2 64.6H275.6c-10.7 0-19.5-8.8-19.5-19.5s8.8-19.5 19.5-19.5h191.5c10.7 0 19.5 8.8 19.5 19.5s-8.7 19.5-19.4 19.5"/>
    <path class="st6" d="M350.2 64.6H218.8c-10.7 0-19.5-8.8-19.5-19.5s8.8-19.5 19.5-19.5h131.5c10.7 0 19.5 8.8 19.5 19.5-.1 10.7-8.9 19.5-19.6 19.5"/>
    <path d="M483.7 45.1c0 9.1-7.3 16.4-16.4 16.4-9.1 0-16.4-7.3-16.4-16.4 0-9.1 7.3-16.4 16.4-16.4 9.1-.1 16.4 7.3 16.4 16.4" style="clip-path:url(#SVGID_4_);fill:#eb3f43"/>
    <path d="M483.7 45.1c0 9.1-7.3 16.4-16.4 16.4-9.1 0-16.4-7.3-16.4-16.4 0-9.1 7.3-16.4 16.4-16.4 9.1-.1 16.4 7.3 16.4 16.4z" style="clip-path:url(#SVGID_4_);fill:none;stroke:#eb3f43;stroke-width:3;stroke-miterlimit:10"/>
    <path d="M386.7 59.4v-4.6h6.1v-17h-5.1v-3.5c1.4-.3 2.6-.6 3.7-1 1-.4 2-.8 2.9-1.4h4.1v22.9h5.3v4.6h-17zM414.6 59.9c-1.5 0-2.8-.2-4-.5s-2.2-.8-3.1-1.4c-.9-.6-1.7-1.3-2.3-2l2.6-3.5c.9.8 1.8 1.5 2.8 2 1 .6 2.2.9 3.4.9 1 0 1.8-.1 2.5-.4.7-.3 1.3-.7 1.7-1.3.4-.6.6-1.2.6-2 0-.9-.2-1.7-.7-2.3-.4-.6-1.2-1.1-2.3-1.5-1.1-.3-2.7-.5-4.7-.5v-4c1.7 0 3.1-.2 4.1-.5 1-.4 1.7-.8 2.1-1.4.4-.6.6-1.3.6-2.1 0-1.1-.3-1.9-1-2.5-.7-.6-1.6-.9-2.8-.9-1 0-1.9.2-2.8.7-.8.4-1.7 1.1-2.5 1.8l-2.9-3.4c1.2-1.1 2.5-1.9 3.9-2.5 1.4-.6 2.9-1 4.5-1 1.8 0 3.4.3 4.8.9 1.4.6 2.5 1.4 3.2 2.5s1.1 2.4 1.1 4c0 1.5-.4 2.7-1.2 3.7s-2 1.8-3.5 2.5v.2c1 .3 2 .7 2.8 1.3s1.5 1.4 2 2.3c.5.9.7 2 .7 3.2 0 1.7-.5 3.1-1.4 4.3-.9 1.2-2.1 2.1-3.6 2.7-1.2.4-2.8.7-4.6.7zM436 59.9c-1.9 0-3.6-.6-5-1.7s-2.5-2.7-3.3-4.8c-.8-2.1-1.2-4.7-1.2-7.8 0-3.1.4-5.7 1.2-7.8.8-2.1 1.9-3.7 3.3-4.7s3.1-1.6 5-1.6 3.6.5 5 1.6 2.5 2.6 3.3 4.7c.8 2.1 1.2 4.7 1.2 7.8 0 3.1-.4 5.7-1.2 7.8-.8 2.1-1.9 3.7-3.3 4.8-1.4 1.1-3.1 1.7-5 1.7zm0-4.4c.8 0 1.6-.3 2.2-.9.6-.6 1.1-1.6 1.5-3.1.4-1.5.5-3.5.5-6 0-2.6-.2-4.6-.5-6-.4-1.4-.8-2.4-1.5-3-.6-.6-1.4-.8-2.2-.8-.8 0-1.5.3-2.1.8-.6.6-1.2 1.5-1.5 3-.4 1.4-.6 3.4-.6 6 0 2.5.2 4.5.6 6 .4 1.5.9 2.5 1.5 3.1.6.6 1.3.9 2.1.9zM371.4 59.2v-8.6h1v3.6h4.1v-3.6h1v8.6h-1v-4.1h-4.1v4.1h-1zM379 59.2v-8.6h2.4c.6 0 1.2.1 1.7.2.5.2.8.4 1.1.8.3.4.4.8.4 1.5 0 .6-.1 1.1-.4 1.5-.3.4-.6.7-1.1.9-.5.2-1 .3-1.7.3H380v3.5h-1zm1-4.3h1.3c.8 0 1.4-.1 1.7-.4.4-.3.6-.8.6-1.4s-.2-1.1-.6-1.3c-.4-.2-1-.4-1.8-.4H380v3.5z"/>
    <path class="st5" d="M321.1 308c-1.7-12.5-1-23.8 2.2-33.8 3.1-10 7.6-19 13.5-27.1 5.9-8.1 11.9-15.8 18-23.1 6.1-7.3 11.4-14.8 15.7-22.4s6.5-15.8 6.5-24.7c0-7.5-1.5-14.3-4.5-20.4-3-6.1-7.5-11.1-13.4-14.8-5.9-3.7-13.4-5.6-22.6-5.6-9.1 0-17.8 2-26 6.1s-15.5 10-22 17.7l-17-15.9c8.2-9.1 17.9-16.8 29.2-23.1 11.3-6.3 24.2-9.4 38.6-9.4 13.5 0 25.1 2.6 35 7.8 9.9 5.2 17.6 12.5 23.1 22s8.3 20.8 8.3 33.8c0 10.8-2.2 20.5-6.7 29.1-4.5 8.5-9.8 16.6-16.1 24.2-6.3 7.6-12.4 15.3-18.4 23.3-6 7.9-10.8 16.4-14.4 25.5s-4.7 19.3-3.2 30.9h-25.8zm14 82.7c-6.3 0-11.5-2.2-15.7-6.5-4.2-4.3-6.3-9.9-6.3-16.6 0-7.2 2.1-13 6.3-17.3 4.2-4.3 9.4-6.5 15.7-6.5 6 0 11.2 2.2 15.5 6.5s6.5 10.1 6.5 17.3c0 6.7-2.2 12.3-6.5 16.6s-9.4 6.5-15.5 6.5z"/>
    <defs>
        <path id="SVGID_5_" d="M0 0h636.6v630H0z"/>
    </defs>
    <clipPath id="SVGID_6_">
        <use xlink:href="#SVGID_5_" style="overflow:visible"/>
    </clipPath>
    <path d="M480.6 616.4 201 526.3c-10.6-3.4-16.4-14.7-13-25.3L317.7 98.7c3.4-10.6 14.7-16.4 25.3-13l279.6 90.1c10.6 3.4 16.4 14.7 13 25.3L505.9 603.4c-3.4 10.6-14.7 16.4-25.3 13" style="clip-path:url(#SVGID_6_)"/>
    <path class="st10" d="m583.4 231-182.3-58.8c-10.2-3.3-15.8-14.3-12.5-24.5 3.3-10.2 14.3-15.8 24.5-12.5L595.4 194c10.2 3.3 15.8 14.3 12.5 24.5-3.3 10.2-14.3 15.8-24.5 12.5"/>
    <path class="st10" d="M472.1 195.2 347 154.8c-10.2-3.3-15.8-14.3-12.5-24.5 3.3-10.2 14.3-15.8 24.5-12.5l125.1 40.3c10.2 3.3 15.8 14.3 12.5 24.5-3.3 10.2-14.3 15.8-24.5 12.6"/>
    <path d="M605.2 217.5c-2.8 8.6-12 13.4-20.7 10.6-8.6-2.8-13.4-12-10.6-20.7 2.8-8.6 12-13.4 20.7-10.6 8.6 2.9 13.3 12.1 10.6 20.7" style="clip-path:url(#SVGID_6_);fill:#eb3f43"/>
    <path d="M605.2 217.5c-2.8 8.6-12 13.4-20.7 10.6-8.6-2.8-13.4-12-10.6-20.7 2.8-8.6 12-13.4 20.7-10.6 8.6 2.9 13.3 12.1 10.6 20.7z" style="clip-path:url(#SVGID_6_);fill:none;stroke:#eb3f43;stroke-width:3;stroke-miterlimit:10"/>
    <path d="m508.5 201.4 1.4-4.3 5.8 1.9 5.2-16.2-4.9-1.6 1.1-3.3c1.4.2 2.7.2 3.8.2 1.1 0 2.1-.2 3.2-.4l3.9 1.3-7 21.8 5 1.6-1.4 4.3-16.1-5.3zM534 210.2c-1.6-.5-3-1.3-4-2.3s-1.8-2-2.3-3.1l3.9-2.3c.3.7.7 1.4 1.4 2 .6.6 1.4 1 2.1 1.3 1.1.4 2.2.4 3.2 0s2.1-1.1 3.1-2.4c1-1.3 1.9-3.2 2.7-5.6.7-2.2 1-4 1-5.4 0-1.4-.3-2.5-.8-3.3-.5-.8-1.2-1.3-2.1-1.6-.7-.2-1.3-.2-2-.1s-1.3.5-1.8 1.1c-.5.6-1 1.4-1.3 2.4-.3 1-.4 1.8-.3 2.6.1.7.4 1.4.9 1.8s1.1.9 1.9 1.1c.7.2 1.6.2 2.5 0 .9-.2 1.9-.8 2.9-1.7l-.9 3.7c-.7.5-1.4.9-2.3 1.2-.8.3-1.6.4-2.4.5s-1.5 0-2.1-.2c-1.5-.5-2.7-1.2-3.7-2.2-1-1-1.6-2.1-1.9-3.5-.3-1.4-.1-3 .5-4.8.6-1.8 1.5-3.2 2.6-4.2s2.5-1.7 4-2c1.5-.3 3-.2 4.5.3 1.3.4 2.4 1.1 3.4 1.9 1 .9 1.8 2 2.3 3.3.6 1.3.9 2.9.9 4.7 0 1.8-.4 3.8-1.1 6-.8 2.5-1.8 4.5-2.9 6.2s-2.4 2.8-3.7 3.7c-1.4.8-2.8 1.3-4.2 1.5-1.3-.1-2.6-.2-4-.6zM555.1 217c-1.8-.6-3.3-1.6-4.3-3.1s-1.6-3.4-1.7-5.6c-.1-2.3.3-4.9 1.3-7.8 1-3 2.1-5.3 3.5-7.1s2.9-2.9 4.6-3.5c1.7-.6 3.5-.6 5.3 0 1.8.6 3.3 1.6 4.3 3.1s1.6 3.3 1.7 5.5c.1 2.2-.3 4.8-1.3 7.8-.9 2.9-2.1 5.3-3.5 7.1-1.4 1.8-3 3-4.7 3.6-1.6.6-3.3.6-5.2 0zm1.4-4.2c.8.3 1.6.2 2.4-.2s1.6-1.2 2.4-2.5c.8-1.3 1.6-3.1 2.3-5.5.8-2.4 1.2-4.4 1.3-5.8.1-1.5-.1-2.6-.5-3.3-.4-.7-1-1.2-1.8-1.5-.7-.2-1.5-.2-2.3.1-.8.3-1.6 1.1-2.4 2.4-.8 1.2-1.6 3.1-2.4 5.5-.8 2.4-1.2 4.4-1.3 5.9-.1 1.5.1 2.6.5 3.4s1 1.3 1.8 1.5zM495.9 197.1l2.6-8.2.9.3-1.1 3.5 3.9 1.3 1.1-3.5.9.3-2.6 8.2-.9-.3 1.3-3.9-3.9-1.3-1.3 3.9-.9-.3zM503.1 199.4l2.6-8.2 2.3.7c.6.2 1.1.4 1.5.7.4.3.7.7.8 1.1.1.4.1.9-.1 1.5s-.5 1-.8 1.3c-.4.3-.8.5-1.3.5s-1.1 0-1.7-.2l-1.4-.4-1.1 3.3-.8-.3zm2.2-3.7 1.2.4c.7.2 1.3.3 1.8.1.5-.2.8-.5 1-1.2.2-.6.1-1.1-.2-1.4-.3-.4-.8-.6-1.6-.9l-1.2-.4-1 3.4z"/>
    <path class="st5" d="M357.7 500.9c-6-1.9-10.3-5.6-13-11-2.7-5.4-3-11.3-.9-17.7 2.2-6.9 6-11.7 11.3-14.6 5.3-2.8 11-3.3 16.9-1.4 5.7 1.8 10 5.5 12.8 10.9 2.8 5.5 3.1 11.6.9 18.5-2.1 6.4-5.8 11-11.3 13.8-5.3 2.9-10.9 3.3-16.7 1.5zm12-83c2.2-12.4 6.4-22.9 12.4-31.5 6-8.5 13.1-15.8 21.2-21.6 8.1-5.9 16.2-11.3 24.3-16.5 8.1-5.1 15.4-10.6 21.8-16.5s11-13.1 13.8-21.5c2.3-7.1 2.9-14 2-20.8-1-6.8-3.7-12.8-8.2-18.2-4.5-5.4-11.1-9.4-19.8-12.2-8.7-2.8-17.6-3.5-26.6-2.1s-17.8 4.7-26.4 10.1l-11.3-20.3c10.6-6.2 22.2-10.5 34.9-13s25.9-1.5 39.6 2.9c12.8 4.1 23.1 10.2 30.9 18.1 7.8 8 12.9 17.3 15.2 28 2.3 10.7 1.5 22.3-2.5 34.7-3.3 10.3-8.4 18.8-15.3 25.6-6.9 6.8-14.4 12.8-22.7 18.1-8.3 5.3-16.5 10.8-24.7 16.5-8.2 5.7-15.3 12.3-21.6 19.8-6.2 7.5-10.4 16.9-12.6 28.4l-24.4-8z"/>
    <defs>
        <path id="SVGID_7_" d="M0 0h636.6v630H0z"/>
    </defs>
    <clipPath id="SVGID_8_">
        <use xlink:href="#SVGID_7_" style="overflow:visible"/>
    </clipPath>
    <path class="st13" d="m587.6 217-3.6-1.5 5.8-15.2 10.8 4.4z"/>
    <path class="st13" d="m583.9 225.8-1.5-.6 5.4-14.1 7.7 3.1zM476.8 53l-7.9-2-6.2 5.4-.5-8.1-7-4.2 7.5-3 1.8-7.9 5.2 6.2 8.1-.7-4.3 6.8z"/>
</svg>
