<svg xmlns="http://www.w3.org/2000/svg" width="679.4" height="436.4" style="overflow:visible;enable-background:new 0 0 679.4 436.4" xml:space="preserve">
    <style>
        .st0{fill:#ea4043}.st2{display:none}.st3{fill:#fff}
    </style>
    <path d="m147.2 200.3 1.3-10.4c-6.4 8.7-14.5 13.8-24.5 15.2-22.5 3.3-40.6-12.8-44.5-40-5.3-36.3 15.4-69.2 45.8-73.6 21.7-3.2 39.4 8.1 46 30l-19.8 8.1c-4-13.3-12.9-19.1-25.1-17.3-17.7 2.6-29.7 23.9-26.1 48.6 2.5 17 13.1 26.5 27.2 24.4 9.7-1.4 18.1-8.5 23.2-18.5l1-7.7-28.8 4.2 2.3-18.9 48.2-7-7.3 60.3-18.9 2.6zM255.1 140.4c3.5 24.3-13.1 46.3-35.4 49.5-19.2 2.8-34.5-7.6-37.1-26-3.5-23.9 12.9-46.1 35.4-49.5 19.4-2.8 34.4 7.6 37.1 26zm-53 19.3c1.4 9.3 7.9 14.2 16.2 13 10.6-1.6 19-14.4 17-28.1-1.3-9-7.9-14.2-16.2-13-10.8 1.6-19 14.6-17 28.1zM270.1 126l-12 1.7 2.7-18.1 12-1.7 2.5-16.4 21.8-10.9-3.7 24.4 20.3-3-2.7 18.1-20.4 3-4.3 28.5c-1.2 8.1 2.5 10.3 8.8 9.4 2.5-.4 5.2-1.1 7.4-2.1l3.2 15.6c-3.7 1.9-7.9 3.8-15.5 4.9-15 2.2-27.4-5.1-24.7-23.2l4.6-30.2zM363 141.1l18.1 2.4c-6.3 16.2-16.6 25.2-31.2 27.3-18.7 2.7-34-8.7-36.8-27.7-3.4-23.5 10.9-43.9 32.7-47 16.8-2.4 30.7 7.3 35.2 23.9l-17.6 6.1c-2.9-9.6-8.5-14.2-16.1-13.1-9.6 1.4-16.4 13.4-14.5 25.9 1.5 10.1 7.8 15.8 16.1 14.6 6.2-.9 11.1-5.3 14.1-12.4zM400 58.3l20.8-3-5.8 37.9c4.2-4.9 10.1-8.6 17.2-9.7 15.9-2.3 27.2 8.7 24.4 26.8l-6.9 44.9-20.8 3 6.7-43.2c1.6-10.5-4-14.2-10.6-13.2-4.8.7-9.1 3.3-12.6 7.6l-8 52.4-20.8 3L400 58.3zM484.6 110.6l26.7-9.1c.4-7.5-4.8-12.4-12.5-11.3-6.7 1-11 4.3-15.5 11.9l-17.9-3.5c7.2-14.1 19.1-23 34.1-25.2 22-3.2 35.4 9.9 32 31.4l-6 39.4-20.7 3 1-6.7c-5.1 5.8-11.6 9.6-18.6 10.6-12.8 1.9-21.5-3.4-23.1-14.4-1.8-11.4 5.9-21.2 20.5-26.1zm8.1 25.6c4.8-.7 10.1-4.2 15-9.2l1.8-12.3-16.4 5.7c-6.9 2.5-10.1 6.5-9.4 10.8.5 3.8 3.7 5.7 9 5zM567.7 69.6l-16-1.7L557.1 0l48.6 4.8z"/>
    <path d="m563.5 109.6-7-.6 5.3-63.2 34.4 3.4z"/>
    <circle cx="559.1" cy="129.3" r="11.7"/>
    <path d="m118.9 312.5-25.8 3.6-1.4 11.6c-.8 6.6-2.4 10.1-7.4 12.7-4.8 2.4-11.3 3.5-20.1 4.7-.1-3.8-1.2-8.5-2.4-11.9 5.5-.5 12.1-1.5 13.9-1.7 1.9-.4 2.5-.8 2.7-2.4l1.4-11.1-32.6 4.6c4.4 2.9 8.7 6.4 11 9.3L47 342.3c-2.8-4.2-9.7-10-15.4-13.5l5.4-4.9-23.1 3.2 1.4-11.3 66-9.2.5-4.4c-22.8 3.7-44.7 7.1-60.9 9.5l.9-10.1c10.8-1.4 25.1-3.5 40.7-5.7l.5-4.3-33.3 4.7 4.3-34.5 33.3-4.7.5-4.3-42.4 5.9 1.3-10.8 42.4-5.9.9-7.5 13.4-1.9-.9 7.5 42.2-5.9-1.3 10.8-42.2 5.9-.5 4.3 34.9-4.9-4.3 34.5-7.7 1.1c5.4 2.3 10.4 5.1 13.7 7.5l-9.3 8.5c-1.2-1-2.7-2.2-4.4-3.3l-8.5 1.4-.6 4.8 25.8-3.6-1.4 11.3zm-54.8-29.7.6-4.6-20.4 2.9-.6 4.6 20.4-2.9zM45.2 273l20.4-2.9.5-4.4-20.4 2.9-.5 4.4zm30.7 20.9 14.6-2.2c-1.5-.5-3-1.1-4.5-1.5l2.5-2.2-12.1 1.7-.5 4.2zm23.1-16 .6-4.6-21.5 3-.6 4.6 21.5-3zm-19.4-14.1-.5 4.4 21.5-3 .5-4.4-21.5 3zM229.4 247.1c-5.2 18.2-11.5 33.8-19.9 47.1 5.1 7.2 11.6 12.6 19.7 16-3.3 2.9-8.3 8.9-10.8 13.1-7.4-3.7-13.4-9.1-18.4-15.9-7.1 8.8-15.5 16.3-25.3 22.9-1.2-2.8-5-8.1-7.5-10.4 10.7-6.4 19.2-14.1 26.5-23.5-3.4-7.2-6-15.4-7.7-24.6-2.2 3.4-4.7 6.5-7.1 9.5-1.2-2.5-4.4-7.3-6.9-10l-7.4 60.2-13.6 1.9 3.8-30.9c-19.2 9.3-23.3 12-26.1 14.5-.5-3.3-2-9.5-3.7-12.3 2.4-1.6 4.7-4.2 5.3-9.1l7.1-57.8 13.5-1.9-7.2 58.5 12.7-5.5 8.1-65.7 13.6-1.9-5.8 47.2c10.4-12.9 18-31.8 23.2-51.5l13.7.4c-2 6.9-4.1 13.8-6.5 20.3l35.2-4.9-1.7 13.5-6.8.8zm-32.5 4.5c-.5 1.1-1.1 2.3-1.6 3.4 1.4 9.9 3.9 19.2 7.4 27.2 5.4-9.7 9.6-20.8 13-33.3l-18.8 2.7zM273.4 293c-13.9 5.9-28.8 11.9-40.7 16.9l-.9-13.3c4.1-1.4 9-3.3 14.4-5.3l3.6-28.8-12.5 1.7 1.6-13.1 12.5-1.7 2.6-21.1-13.3 1.9 1.6-13.3 39.4-5.5-1.6 13.3-13.3 1.9-2.6 21.1 10.5-1.5-1.6 13.1-10.5 1.5-3.1 25.3 13.9-5.6V293zm65.6-27c-14.2 23.1-35.9 38.5-62.2 49.3-1.1-3.6-3.8-8.2-6.4-11.2 24.1-8.6 45.1-22 57-41.4L339 266zm-15.5-63.9c-.9 1.8-1.9 3.7-2.9 5.4 6.8 9.1 18.4 17.3 29.2 21.6-3.5 3-8.6 8.9-11.2 12.9-9-4.9-18.6-13.3-25.8-22.5-9.3 12.6-20.7 23.4-33.7 32.2-1.5-2.7-5.2-7.3-7.7-9.3 17-10.5 31.9-26.5 40.2-42.4l11.9 2.1zm6.1 48.6c-11.5 15.6-28 29.5-44.2 39-1.4-3-4.5-6.9-7.4-9.3 15-7.8 31.6-20.3 40.9-33.3l10.7 3.6zm-9.8-13.6c-8.5 10.7-20.7 21.1-31.4 28.1-1.6-2.5-4.6-6.2-7.5-8.3 10-5.6 22.1-14.6 28.8-23l10.1 3.2zM451.6 238.6l-14.3 2-4.7 38.1c-.9 7.2-3.1 11-8.6 13.9-5.4 2.8-12.9 3.9-22.8 5.3-.3-3.7-1.8-8.7-3.3-12.1l-32.2 4.5-.9 7.4-13.1 1.8 5-40.6 49.7-6.9-4.1 33c5.6-.7 11.1-1.4 12.7-1.7 2.3-.6 3.1-1.1 3.3-2.9l4.7-37.7-76 10.6 1.6-12.7 10.2-1.4c-.9-3.2-2.9-7-4.4-9.3 20.7-5.1 30.9-10.6 36.9-18.3l-34 4.7 1.5-12.3 38.2-5.3c1-3.2 1.6-6.6 2.3-10.5l14.2-2c-.7 3.7-1.5 7.2-2.3 10.5l40.2-5.6-1.5 12.3-39.2 5.5c12.7 2.7 27 6.5 36.1 9.3l-10.1 10.1 16.5-2.3-1.6 12.6zm-59.7 26.3-23.6 3.3-1.4 11.1 23.6-3.3 1.4-11.1zm41.4-36.2c-8.6-3-21.5-6.6-33.2-9.4-6.8 7.7-17.1 13.6-34 18.8l67.2-9.4zM526.9 258.9c10.6 2.4 21.8 5.4 28.9 8L543 278.4c-7.2-3.1-19.8-7.2-31.9-10l7.9-8.3-30.4 4.2 8.6 5.6c-10.1 7.4-25.4 15.3-38 20-1.6-2.7-4.9-6.8-7.4-9.2 10.7-3.9 23.6-10.3 31.8-15.8l-30.7 4.3 1.5-12.2 26.3-3.7 1.1-9.1-19.2 2.7 1.5-12.2 19.2-2.7 1-8-15.5 2.2 5.5-44.5 82.2-11.5-5.5 44.5-15.7 2.2-1 8 20-2.8-1.5 12.2-20 2.8-1.1 9.1 26.7-3.7-1.5 12.2-30 4.2zm-43.4-45.1 20.8-2.9.8-6.7-20.8 2.9-.8 6.7zm2-16.7 20.8-2.9.8-6.6-20.8 2.9-.8 6.6zm9.3 54.3 23-3.2 1.1-9.1-23 3.2-1.1 9.1zm2.7-21.3 23-3.2 1-8-23 3.2-1 8zm42-30.7-21.1 3-.8 6.7 21.1-3 .8-6.7zm2-16.6-21.1 3-.8 6.6 21.1-3 .8-6.6zM619 254.4c15.2-17.4 21-38.4 23.9-55.5l-14.3 2 1.6-13.2 14.6-2 3.9-31.9L662 152l-3.9 31.9 19.6-2.7-1.6 13.2-18.1 2.5c.2 22.6 3.2 42.9 13.4 52.4-3.4 3-8.5 9-11 13.1-7.1-7.8-10.7-19.9-12.4-34.8-5.1 13.7-12.7 27.6-24 39.6-1.3-1.7-3.6-4.1-5.8-6m9.5-28-63 8.8 1.2-10.1 63-8.8-1.2 10.1zm-52.2-40.3 53.3-7.4-4.3 34.9-53.3 7.4 4.3-34.9zm8.8 24.8 8.5-1.2.6-5.2-8.5 1.2-.6 5.2zm1.6-13 8.5-1.2.6-5-8.5 1.2-.6 5zm27.6 3.9-8.9 1.2-.6 5.2 8.9-1.2.6-5.2zm1.6-13-8.9 1.2-.6 5 8.9-1.2.6-5zm52.3-16.5c-.4-5.2-2.7-13.6-5.5-19.6l11.2-5.6c3 5.8 5.7 13.6 6.3 19l-12 6.2z"/>
    <ellipse transform="rotate(-85.289 584.701 172.394) scale(.99998)" cx="584.7" cy="172.4" rx="17.2" ry="17.1"/>
    <ellipse transform="rotate(-85.289 584.701 172.394) scale(.99998)" class="st0" cx="584.7" cy="172.4" rx="6.8" ry="6.7"/>
    <ellipse transform="rotate(-85.289 619.868 166.796) scale(.99998)" cx="619.9" cy="166.8" rx="17.2" ry="17.1"/>
    <ellipse transform="rotate(-85.289 619.868 166.796) scale(.99998)" class="st0" cx="619.9" cy="166.8" rx="6.8" ry="6.7"/>
    <circle transform="rotate(-85.289 621.4 166.324) scale(.99998)" cx="621.4" cy="166.3" r="4.1"/>
    <circle transform="rotate(-85.289 585.99 171.962) scale(.99998)" cx="586" cy="172" r="4.1"/>
    <path style="fill:none;stroke:#000;stroke-width:10;stroke-miterlimit:10" d="m572.6 249-2.6 20.6 42.6-5.7 2.7-20-22.7 3z"/>
    <path d="M585 258.5h-.3c-2.2-.2-3.8-2.1-3.6-4.2l.5-6.3c.2-2.2 2.1-3.8 4.2-3.6h.3c2.2.2 3.8 2.1 3.6 4.2l-.5 6.3c-.1 2.1-2 3.8-4.2 3.6zM599.6 257.1h-.3c-2.2-.2-3.8-2.1-3.6-4.2l.5-6.3c.2-2.2 2.1-3.8 4.2-3.6h.3c2.2.2 3.8 2.1 3.6 4.2l-.5 6.3c-.2 2.1-2.1 3.8-4.2 3.6zM658.2 346.9 0 436.4l14-62.3 658.1-89.4z"/>
    <path class="st3" d="M260.4 378.5c-2.6 4.5-6.5 7.5-14.8 9.8 0-.6-.3-1.6-.5-2 7.1-1.9 10.6-4.2 12.8-7.4l-11 1.5.5-2.2 11.9-1.6c.3-.6.5-1.3.8-2l2.4-.3c-.3.7-.5 1.4-.8 2l12.9-1.8-.5 2.2-13.7 1.8zm-7.8-2.5-2.1.3 4.1-17.5 8.9-1.2c.6-1 1.2-2.1 1.6-2.9h2.3c-.5.9-1.1 1.8-1.6 2.6l10.7-1.5-3.6 15.3c-.3 1.1-.6 1.7-1.2 2.1-.7.4-1.6.6-2.7.7 0-.6-.1-1.4-.3-1.9l1.6-.2c.2 0 .4-.2.4-.4l3.1-13.2-17.5 2.4-3.7 15.4zm8.1-2.6 1-4.2c-2 2-4.6 3.9-6.7 5.1-.2-.4-.6-1-.9-1.4 2.1-1 4.8-2.9 6.7-4.8l-5.2.7.4-1.7 3-.4c0-.7-.2-1.7-.5-2.4l1.5-.7c.3.7.6 1.8.5 2.5l-1 .5 2.7-.4.8-3.6c-1.9.4-3.8.7-5.5.9 0-.4 0-1.1-.1-1.4 4.3-.7 9.8-1.8 12.8-2.7l.7 1.3c-1.7.5-3.9 1.1-6.2 1.5l-.9 3.7 2.6-.4-.8-.3c.6-.9 1.5-2.3 2.1-3.2l1.4.4c-.8 1.2-1.6 2.2-2.2 3.1l3.4-.5-.4 1.7-6.3.9c1.9.9 4.2 2.1 5.4 3l-1.4 1.7c-1-.8-2.9-1.9-4.7-2.8l-.8 3.5-1.4.4zm1.5 5c3.3 1.2 8 3.1 10.4 4.4L271 385c-2.3-1.3-6.9-3.3-10.3-4.7l1.5-1.9zM318.7 362.2l-.5 2.3-12.7 1.7c-.3 1-.7 1.9-1 2.7l12.6-1.7-.5 2.3-13.1 1.8c-2.6 5-6.5 8.4-14.9 11.1 0-.6-.3-1.6-.6-2.2 7.3-2.1 10.8-4.8 13.1-8.6l-10.2 1.4.5-2.3 10.9-1.5c.4-.9.7-1.8 1-2.8l-12 1.6.5-2.3L304 364l.7-2.9-9.5 1.3.5-2.3 9.5-1.3.7-2.8-11.2 1.5.6-2.3 6.4-.9c-.2-1.2-.8-2.6-1.4-3.7l2.2-1.2c.8 1.2 1.5 2.9 1.6 4l-1.2.7 8-1.1c1.3-1.6 2.8-3.8 3.8-5.3l2.1.5c-1.1 1.5-2.3 3.2-3.4 4.5l6.5-.9-.6 2.3-11.2 1.5-.7 2.8 9.8-1.3-.5 2.3-9.8 1.3-.7 2.9 12.5-1.4zm-14.3 9.3c3.7 1.3 8.5 3.5 10.8 5.2l-1.6 2.4c-2.2-1.8-6.9-4.2-10.6-5.6l1.4-2zM337.1 366.3c-1.3 2.6-3.2 5.5-4.8 7.4-.3-.3-.9-.8-1.3-1 1.6-1.8 3.2-4.3 4.4-6.7l1.7.3zm4.4-2.9-2.9 12.2-2.2.3 2.9-12.2-6.1.8.5-2.2 6.1-.8.9-3.7-6.2.8.5-2.2 8.4-1.1c1-1.7 2.2-4.1 2.9-5.8l2 .2c-.9 1.8-2 3.7-2.9 5.3l3.9-.5-.5 2.2-5.9.8-.9 3.7 5.5-.8-.5 2.2-5.5.8zm8.6-14.6-13.4 1.8.5-2.2 6-.8c-.1-1-.4-2.1-.6-3l2.4-1c.4 1.1.7 2.5.8 3.6l4.8-.7-.5 2.3zm-11.5 7c.2-1.3.1-3.2 0-4.7l1.9-.7c.3 1.4.3 3.3.1 4.6l-2 .8zm5.4 8.8c.6 1.6 1.1 3.7 1.3 5.2l-1.9 1.3c-.1-1.4-.7-3.7-1.2-5.3l1.8-1.2zm17.9-9.4-3.4.5-4.2 17.7-2.2.3 4.2-17.7-4.2.6-.3 1.2c-1.2 5-3.2 11.9-7 16.9-.3-.4-.9-1.1-1.4-1.3 3.6-4.6 5.2-10.6 6.3-15.2l2.8-12.1c3.6-1.1 7.7-2.7 10.1-4l1.4 1.7c-2.8 1.4-6.5 2.8-9.8 3.8l-1.6 6.7 9.7-1.3-.4 2.2zM395.3 337.1c-.3 1.3-.8 3-1.4 5.1-.5 4.1-2.1 18.5 7.3 22.5-.8.7-1.7 1.6-2.2 2.4-6.7-3.1-7.9-11.3-7.8-17.6-3.1 7.2-8.1 15.5-16.6 21.1-.2-.6-.8-1.3-1.4-1.8 14.4-9.1 18.2-26.1 19.6-31.4l2.5-.3zM447.7 339.2l-8.1 1.1-4.3 18.2c-.4 1.9-1.1 2.7-2.2 3.3-1.1.6-3 .9-5.9 1.3.1-.7 0-1.9-.2-2.6 2.1-.2 4.2-.5 4.8-.6.6-.1.9-.4 1.1-1.1l4.1-17.3c-5.1 7.1-12.6 14.8-19.1 19.2-.2-.7-.7-1.6-1.2-2.1 6.2-3.9 13.4-11 18.2-17.7l-13.5 1.8.6-2.6 15.8-2.1 1.7-7.1 2.4-.3-1.7 7.1 8.1-1.1-.6 2.6zM476.8 341.1c1.5 4.9 5.4 9.1 10.1 10.7-.7.6-1.7 1.8-2.2 2.5-3.7-1.6-6.9-4.9-8.8-9.1l-2.9 12.1-2.3.3 2.8-12c-4.1 4.9-9 9.2-13.6 11.9-.2-.6-.7-1.5-1.1-2 5.5-3 11.6-8.5 15.6-14l2-8.5-11.7 1.6.6-2.6 11.7-1.6 1.1-4.8 2.3-.3-1.1 4.8 12.1-1.6-.6 2.6-12.1 1.6-1.9 8.4zm-4.8-6.2c-.7 1.5-1.4 2.9-2.2 4.3 1 1.1 2 2.5 2.5 3.4l-2 2c-.4-.8-1.2-1.9-2-3-1.6 2.3-3.3 4.4-5.1 6-.3-.4-1-1.1-1.4-1.4 3.3-2.8 6.1-6.8 8.1-11.4l2.1.1zm14.3-2c-.6 1.5-1.3 2.9-2 4.3 1.5 1.5 3.3 3.4 4.2 4.6l-2 2c-.7-1.2-2.2-2.9-3.6-4.4-1.1 1.7-2.4 3.2-3.7 4.5-.3-.3-1.1-.9-1.6-1.1 2.7-2.5 5-6.1 6.6-10l2.1.1zM513.2 349.8l-7.7 1-.4 1.6-2 .3 2.8-11.8 9.7-1.3-2.4 10.2zm-5.8-6.9-1.4 5.8 5.7-.8 1.4-5.8-5.7.8zm8.7-5.8-9.8 1.3.5-2.1 9.8-1.3-.5 2.1zm3.5-9.2-12.5 1.7.5-2.1 12.5-1.7-.5 2.1zm-11.8 3.9 9.9-1.3-.5 2.1-9.9 1.3.5-2.1zm5.7-5.5c-.1-1.2-.6-3-1.1-4.4l1.9-1.2c.6 1.3 1.1 3 1.3 4.2l-2.1 1.4zm19 6.2-6.3.9-4.1 17.4-2.3.3 4.1-17.4-6 .8.6-2.6 6-.8 2.7-11.4 2.3-.3-2.7 11.4 6.3-.9-.6 2.6zM544.1 344.8c4.3-.8 11.1-2.1 17.7-3.3l-.5 2c-6.4 1.2-13.1 2.6-17.5 3.4l.3-2.1zm18-12-1.8 7.7-13.6 1.8 1.8-7.7 13.6-1.8zm3.2-13.5 1.9-.3-.4 1.8-1.9.3-.8 3.5-6 .8-.4 1.6 6.4-.9-.4 1.6-6.4.9-.4 1.6 7.7-1-.4 1.8-17.1 2.3.4-1.8 7.4-1 .4-1.6-5.9.8.4-1.6 5.9-.8.4-1.6-5.7.8.4-1.6 5.7-.8.4-1.9-7.6 1 .4-1.8 7.6-1 .4-1.7-5.6.8.4-1.6 5.6-.8.5-2.2 2.1-.3-.5 2.2 6-.8-.9 3.3zm-16.4 21.3 3.9-.5.4-1.7-3.9.5-.4 1.7zm.7-3.1 3.9-.5.4-1.7-3.9.5-.4 1.7zm9.5.1-3.9.5-.4 1.7 3.9-.5.4-1.7zm.7-3.1-3.9.5-.4 1.7 3.9-.5.4-1.7zm3.1-13.2-4 .5-.4 1.9 4-.5.4-1.9zm-3.6-1.2 4-.5.4-1.7-4 .5-.4 1.7zm18.1-7.2-6.6 28c-.4 1.6-.9 2.4-1.9 3-.9.5-2.4.8-4.8 1.1.1-.7 0-1.8-.1-2.4 1.8-.2 3.3-.4 3.8-.5.5-.1.8-.3.9-.9l6.6-28 2.1-.3zm-11.2 23.5-2.1.3 4.5-19.3 2.1-.3-4.5 19.3zM107.7 402l11.6-1.4-.7 3.2-17.5 2 13.2-15c2.8-3.1 4.8-5.7 5.5-9 .9-3.9-.9-6-3.9-5.7-2.8.3-5.6 2.9-6.5 6.9-.2 1.1-.2 2-.1 3l-3.1 1.3c-.2-1.1-.1-2.5.2-3.9 1.3-5.9 5.8-10.1 10.5-10.6s7.4 2.9 6.1 8.6c-.9 4-3.3 7.1-6.6 10.8l-8.7 9.8zM139.7 386c2.2-9.9 7.5-16.7 13.4-17.4 5.9-.7 8.3 5.3 6.1 15.1-2.2 9.9-7.5 16.7-13.4 17.4-6 .7-8.3-5.2-6.1-15.1zm3.1-.3c-1.8 7.8-.5 12.6 3.7 12.1 4.3-.5 7.9-5.9 9.6-13.7 1.8-7.8.5-12.6-3.8-12.1-4.2.4-7.8 5.9-9.5 13.7zM179.2 393.6l11.6-1.4-.7 3.2-17.5 2 13.2-15c2.8-3.1 4.8-5.7 5.5-9 .9-3.9-.9-6-3.9-5.7-2.8.3-5.6 2.9-6.5 6.9-.2 1.1-.3 2-.1 3l-3.1 1.3c-.2-1.1-.1-2.5.2-3.9 1.3-5.9 5.8-10.1 10.5-10.6s7.4 2.9 6.1 8.6c-.9 4-3.3 7.1-6.6 10.8l-8.7 9.8zM226.7 372.5l-1.9 8.6 3.7-.4-.7 3.2-3.7.4-1.7 7.5-3 .4 1.7-7.5-14.6 1.7 18.3-25.8 3.3-.4-16 22.4 9.7-1.1 1.9-8.6 3-.4z"/>
</svg>
