<svg xmlns="http://www.w3.org/2000/svg" xmlns:xlink="http://www.w3.org/1999/xlink" width="223.8" height="296" style="overflow:visible;enable-background:new 0 0 223.8 296" xml:space="preserve">
    <style>
        .st0{fill:#efefef}.st0,.st1,.st3,.st5,.st6,.st7{clip-path:url(#SVGID_2_)}.st3,.st5,.st6,.st7{fill:#f3cfcf}.st5,.st6,.st7{fill:#a6a6a8}.st6,.st7{fill:#fff}.st7{fill:#ea4043}
    </style>
    <defs>
        <path id="SVGID_1_" d="M0 0h223.8v296H0z"/>
    </defs>
    <clipPath id="SVGID_2_">
        <use xlink:href="#SVGID_1_" style="overflow:visible"/>
    </clipPath>
    <path class="st0" d="M100 183.9c-14.7 15.6-32.2 29.7-49.1 40.8-9.7 6.4-19.2 12-21.4 13.3L0 296s6.3-4.3 11.3-8.1c5.5-4.2 46.2-29.8 85.5-47.7l16.4-6.9 2.7-1.2 3.3-16.5c0-.1-19-31.5-19.2-31.7"/>
    <path class="st0" d="m220.4 137.4 3.3-2.3c.7-19.3-5.6-36.2-19.1-46-26.4-19.1-70-3.8-97.4 34.1-27.4 37.9-28.3 84.1-2 103.2 22.3 16.2 57.1 7.6 83.9-18.4-.7-.5-1.3-1.2-1.6-2l4.9-1.4c3.4-3.6 6.6-7.5 9.7-11.6-1.2-.3-2.2-1.2-2.6-2.5l5.4-1.6c7.8-11.5 13.1-23.7 16.1-35.5-1.6.5-3.4-.2-4.2-1.8l5.2-2.6c.7-3.4 1.1-6.7 1.4-10-1.1 0-2.2-.6-3-1.6m-119.1 45.9c-.2-.2-.5-.3-.7-.5.8-.9 1.6-1.7 2.4-2.6l3.2 2c-1 1.6-3.2 2.2-4.9 1.1m84.5-27.5c.3 2-1 3.8-3 4.1-2 .3-3.8-1-4.2-3l7.2-1.1zm-52-5.7 6.5 3.1c-.9 1.8-3 2.5-4.8 1.7-1.8-.8-2.5-3-1.7-4.8M113 168.4c.7-.9 1.5-1.9 2.2-2.9l3.2 1.8c-1 1.7-3.2 2.3-4.9 1.3-.2 0-.4-.1-.5-.2m-.4 34.4c-1.8-.7-2.8-2.8-2-4.7l6.7 2.7c-.8 1.9-2.8 2.8-4.7 2m11.2-50.2 3.3 1.5c-.8 1.8-3 2.6-4.8 1.8-.2-.1-.3-.1-.4-.2.7-1.1 1.3-2.1 1.9-3.1M122 184c-1.8-.8-2.7-2.9-1.9-4.7l6.7 2.9c-.9 1.8-3 2.6-4.8 1.8m7.7-16.5c-1.8-.8-2.6-2.9-1.8-4.8l6.6 3c-.9 1.8-3 2.6-4.8 1.8m5.4 29.5c-1.9-.6-3-2.5-2.5-4.5l7 2c-.6 1.9-2.6 3-4.5 2.5m5.7-16.9c-1.9-.5-3.1-2.5-2.5-4.4l7 1.9c-.6 1.9-2.6 3-4.5 2.5m4.3-16c-1.9-.5-3.1-2.4-2.6-4.4l7 1.8c-.5 2-2.5 3.1-4.4 2.6m6.8 45.4c-2-.3-3.3-2.1-3.1-4.1l7.2 1c-.3 2-2.1 3.4-4.1 3.1m2.7-17.9c-2-.3-3.4-2.1-3.1-4l7.2.9c-.3 2-2.1 3.4-4.1 3.1m1.9-16c-2-.2-3.4-2-3.2-4l7.2.8c-.3 1.9-2 3.4-4 3.2m2.1-14.2c-2-.2-3.4-2-3.2-3.9l7.2.7c-.3 2-2 3.4-4 3.2m9.4 2.2 7.2-.6c.1 2-1.3 3.7-3.3 3.9-2 .2-3.8-1.3-3.9-3.3m.8 16 7.2-.3c.1 2-1.5 3.7-3.5 3.7-1.9.1-3.6-1.5-3.7-3.4m4.9 20.6c-2 .2-3.8-1.2-4-3.2l7.2-.8c.2 2-1.3 3.7-3.2 4m10.9-25.8c-2 .4-3.9-.9-4.3-2.8l7.1-1.4c.4 1.9-.9 3.8-2.8 4.2m3.8 15.9c-1.9.5-3.9-.7-4.4-2.6l7-1.7c.5 1.9-.7 3.8-2.6 4.3m3.3-29.8 6.9-2.1c.6 1.9-.5 3.9-2.4 4.5-1.9.6-3.9-.5-4.5-2.4m8.5 17.1c-1.9.5-3.9-.6-4.4-2.5l7-1.9c.5 1.9-.7 3.8-2.6 4.4m6.5-25.9c-1.8.8-3.9 0-4.8-1.8l6.6-2.9c.9 1.8.1 3.9-1.8 4.7m5.8 14.9c-1.9.7-3.9-.2-4.7-2l6.7-2.7c.8 1.9-.1 4-2 4.7"/>
    <path class="st1" d="M140.8 180.1c1.9.5 3.9-.6 4.4-2.5l-7-1.9c-.5 1.9.7 3.9 2.6 4.4M154.6 191.6c2 .3 3.8-1.1 4.1-3.1l-7.2-.9c-.2 1.9 1.1 3.7 3.1 4M156.5 175.6c2 .2 3.8-1.2 4-3.2l-7.2-.8c-.2 2 1.2 3.7 3.2 4M172.5 183c2-.1 3.5-1.7 3.5-3.7l-7.2.3c.1 1.9 1.8 3.5 3.7 3.4M135.5 154.9c1.8.9 3.9.1 4.8-1.7l-6.5-3.1c-.8 1.8-.1 4 1.7 4.8M145.1 164.1c1.9.5 3.9-.7 4.4-2.6l-7-1.8c-.5 2 .6 4 2.6 4.4M158.6 161.4c2 .2 3.8-1.2 4-3.2l-7.2-.7c-.2 1.9 1.2 3.7 3.2 3.9M171.9 166.9c2-.2 3.5-1.9 3.3-3.9l-7.2.6c.1 2 1.9 3.5 3.9 3.3M182.8 159.9c2-.3 3.3-2.2 3-4.1l-7.1 1.2c.3 1.9 2.1 3.3 4.1 2.9M198.6 158.4l-6.9 2.1c.6 1.9 2.6 2.9 4.5 2.4 2-.6 3-2.6 2.4-4.5M129.7 167.5c1.8.8 3.9 0 4.8-1.8l-6.6-3c-.9 1.9 0 4 1.8 4.8M187.4 170.2l-7.1 1.4c.4 1.9 2.3 3.2 4.3 2.8 1.9-.4 3.2-2.3 2.8-4.2M122 184.1c1.8.8 3.9-.1 4.7-1.9l-6.7-2.9c-.7 1.9.2 4 2 4.8M135.1 197c1.9.6 3.9-.5 4.5-2.4l-7-2c-.5 1.8.6 3.8 2.5 4.4M169.7 197c.2 2 2 3.4 4 3.2 2-.2 3.4-2 3.2-4l-7.2.8zM184 187.7c.5 1.9 2.4 3.1 4.4 2.6 1.9-.5 3.1-2.4 2.7-4.3l-7.1 1.7zM100.6 182.8c.2.2.4.4.7.5 1.7 1 3.9.5 5-1.2l-3.2-2c-.9 1-1.7 1.8-2.5 2.7M118.3 167.4l-3.2-1.8c-.7 1-1.4 1.9-2.2 2.9.1.1.3.2.4.3 1.8.9 4 .3 5-1.4M127.2 154.1l-3.3-1.5c-.6 1-1.2 2-1.9 3.1.1.1.3.2.4.2 1.8.8 4 0 4.8-1.8M151.9 209.5c2 .3 3.8-1.1 4.1-3l-7.2-1c-.2 1.9 1.2 3.7 3.1 4M112.6 202.8c1.8.7 3.9-.2 4.7-2l-6.7-2.7c-.8 1.9.2 4 2 4.7M189.1 208l3.4-3.4-4.9 1.4c.2.8.8 1.5 1.5 2M202 149.9c.8 1.8 2.9 2.6 4.8 1.8 1.8-.8 2.6-2.9 1.8-4.8l-6.6 3zM221.1 153.4c.4-1.5.7-3 1-4.5l-5.2 2.6c.8 1.6 2.6 2.4 4.2 1.9M220.4 137.4c.7 1 1.9 1.6 3.1 1.5.1-1.3.2-2.6.2-3.8l-3.3 2.3zM207.8 164.6c.7 1.8 2.8 2.7 4.7 2 1.9-.7 2.8-2.8 2-4.7l-6.7 2.7zM195.8 175c.5 1.9 2.5 3 4.4 2.5 1.9-.5 3.1-2.5 2.6-4.4l-7 1.9zM202.2 192.9c.2-.2.3-.4.5-.6.8-1.1 1.6-2.3 2.4-3.4l-5.4 1.6c.3 1.2 1.3 2.1 2.5 2.4"/>
    <path d="m162.3 247.3-4.4-18.2c-3.8 1.6-7.6 2.9-11.8 3.9l4.1 17.2" style="clip-path:url(#SVGID_2_);fill:#535657"/>
    <path class="st0" d="m133.5 233.8 4.6 19.2 12.1-2.9-4.7-19.6c-3.9 1-7.9 2.2-12 3.3"/>
    <path class="st3" d="M215.5 87.6c0 28.2-22.9 51.1-51.1 51.1-28.2 0-51.1-22.9-51.1-51.1s22.9-51.1 51.1-51.1c28.2 0 51.1 22.9 51.1 51.1"/>
    <path d="m171.5 36.5-4.1 32.4 22.9-26c-5.7-3.3-12.1-5.5-18.8-6.4" style="clip-path:url(#SVGID_2_);fill:#535458"/>
    <path class="st3" d="M164.7 36c-5.2 0-10.3.8-15.1 2.3l17.7 30.5 4.1-32.4c-2.1-.2-4.4-.4-6.7-.4"/>
    <path class="st5" d="M164.7 36c-5.2 0-10.3.8-15.1 2.3l17.7 30.5 4.1-32.4c-2.1-.2-4.4-.4-6.7-.4"/>
    <path class="st1" d="M126.2 11.9c.1 26.5 17.3 49 41.1 56.9L127.4 0c-.8 3.9-1.2 7.9-1.2 11.9M218.8 21.1c-5.2 26-26.5 44.6-51.5 47.7L220 9.2c0 3.9-.4 7.9-1.2 11.9"/>
    <path class="st5" d="M162.4 99.2c-.8-.1-1.5.5-1.6 1.4-.1.8.5 1.6 1.3 1.7.8.1 1.5-.5 1.6-1.4.1-.9-.5-1.6-1.3-1.7"/>
    <path class="st1" d="m174.8 98.2-17.5-1.8 7.1 20.6 10.4-18.8zm-5.4 1.7c.8.1 1.4.8 1.3 1.7-.1.8-.8 1.4-1.6 1.4-.8-.1-1.4-.8-1.3-1.7 0-.9.8-1.5 1.6-1.4m-7.3 2.3c-.8-.1-1.4-.8-1.3-1.7.1-.8.8-1.4 1.6-1.4.8.1 1.4.8 1.3 1.7-.1.9-.8 1.5-1.6 1.4"/>
    <path class="st5" d="M169.1 102.9c.8.1 1.5-.5 1.6-1.4.1-.8-.5-1.6-1.3-1.7-.8-.1-1.5.5-1.6 1.4-.1.9.5 1.6 1.3 1.7"/>
    <path class="st6" d="M207.2 76.3c0 10.4-8.4 18.8-18.8 18.8s-18.8-8.4-18.8-18.8 8.4-18.8 18.8-18.8c10.4.1 18.8 8.4 18.8 18.8"/>
    <path class="st7" d="M204.6 76.3c0 8.9-7.2 16.1-16.1 16.1-8.9 0-16.1-7.2-16.1-16.1 0-8.9 7.2-16.1 16.1-16.1 8.9 0 16.1 7.2 16.1 16.1"/>
    <path class="st1" d="M199.8 76.3c0 6.3-5.1 11.4-11.4 11.4-6.3 0-11.4-5.1-11.4-11.4 0-6.3 5.1-11.4 11.4-11.4 6.3.1 11.4 5.1 11.4 11.4"/>
    <path class="st6" d="M164 73c0 10.4-8.4 18.8-18.8 18.8s-18.8-8.4-18.8-18.8 8.4-18.8 18.8-18.8S164 62.6 164 73"/>
    <path class="st7" d="M161.4 73c0 8.9-7.2 16.1-16.1 16.1-8.9 0-16.1-7.2-16.1-16.1 0-8.9 7.2-16.1 16.1-16.1 8.8-.1 16.1 7.2 16.1 16.1"/>
    <path class="st1" d="M156.6 73c0 6.3-5.1 11.4-11.4 11.4-6.3 0-11.4-5.1-11.4-11.4 0-6.3 5.1-11.4 11.4-11.4 6.3 0 11.4 5.1 11.4 11.4M134.4 125.6c1.6-21.4-16.8-36-24.9-41.3-2.3-1.5-3.7-2.3-3.7-2.3L29.2 238.6s.2-.1.5-.3c2.2-1.3 11.7-7 21.4-13.3 16.9-11.1 34.4-25.1 49.1-40.8.8-.9 1.6-1.7 2.4-2.6 3.5-3.8 6.8-7.8 9.9-11.8.7-.9 1.5-1.9 2.2-2.9 6.9-9.3 12.6-18.9 16.5-28.6.2-.6.5-1.2.7-1.8 1.4-3.8 2.2-7.4 2.5-10.9"/>
</svg>
