<svg xmlns="http://www.w3.org/2000/svg" width="273.9" height="263.4" style="overflow:visible;enable-background:new 0 0 273.9 263.4" xml:space="preserve">
    <style>
        .st0,.st1{fill:#eee}.st1{fill-rule:evenodd;clip-rule:evenodd}.st2{fill:#515457}.st3{fill:#eb3f43}
    </style>
    <path d="M162.5 67.1 155.2 95l8.7 29.9 38.5 3.5-6.6-42.4z"/>
    <path d="m162.1 67.9 31-43.7L222.7 83l-29.1 9.1z"/>
    <path d="m217.2 81.8-24.1-57.6 52.6 29z"/>
    <path d="m218.1 79 27.6-26 17.6 22.2-16.9 26.2z"/>
    <path d="m193.4 92 28.5-14.4 25.1 22.9-11 15.4-37.3 1.3z"/>
    <path class="st0" d="m260.4 102.1-47.7 24.7 61.2-26.1-13.2 1.5-.3-.1z"/>
    <path class="st1" d="m260.4 102.1-47.7 24.7 61.2-26.1-13.2 1.5-.3-.1z"/>
    <path class="st0" d="m212.7 126.8 47.7-24.7-19.1-2.9-28.6 27.6z"/>
    <path class="st1" d="m212.7 126.8 47.7-24.7-19.1-2.9-28.6 27.6z"/>
    <path class="st0" d="m212.7 126.8 28.6-27.6-20.5-8-8.1 35.6z"/>
    <path class="st1" d="m212.7 126.8 28.6-27.6-20.5-8-8.1 35.6z"/>
    <path class="st0" d="m212.7 126.8 8.1-35.6-13.1-11.1 5 46.7z"/>
    <path class="st1" d="m212.7 126.8 8.1-35.6-13.1-11.1 5 46.7z"/>
    <path class="st0" d="m212.7 126.8-5-46.7-6.1-9.8 11.1 56.5z"/>
    <path class="st1" d="m212.7 126.8-5-46.7-6.1-9.8 11.1 56.5z"/>
    <path class="st0" d="m241.6 80-20.8 11.2 20.5 8 .7-19-.4-.2z"/>
    <path class="st1" d="m241.6 80-20.8 11.2 20.5 8 .7-19-.4-.2z"/>
    <path class="st0" d="m242 80.2-.7 19 18.6-14v-.1L242 80.2z"/>
    <path class="st1" d="m242 80.2-.7 19 18.6-14v-.1L242 80.2z"/>
    <path class="st0" d="m259.9 85.2-18.6 14 19.1 2.9-.5-16.9z"/>
    <path class="st1" d="m259.9 85.2-18.6 14 19.1 2.9-.5-16.9z"/>
    <path class="st0" d="m259.9 85.2.5 16.9 9.5-18.8-9.8 1.7-.2.2z"/>
    <path class="st1" d="m259.9 85.2.5 16.9 9.5-18.8-9.8 1.7-.2.2z"/>
    <path class="st0" d="m269.9 83.3-9.5 18.8.3.1 13.2-1.5-1.4-17.9-2.6.5z"/>
    <path class="st1" d="m269.9 83.3-9.5 18.8.3.1 13.2-1.5-1.4-17.9-2.6.5z"/>
    <path class="st0" d="m207.7 80.1 16.6-9.8-4-7.1-12.6 16.9z"/>
    <path class="st1" d="m207.7 80.1 16.6-9.8-4-7.1-12.6 16.9z"/>
    <path class="st0" d="m224.3 70.3-16.6 9.8 13.1 11.1 3.5-20.9z"/>
    <path class="st1" d="m224.3 70.3-16.6 9.8 13.1 11.1 3.5-20.9z"/>
    <path class="st0" d="m224.3 70.3-3.5 20.9L241.6 80l-17.3-9.7z"/>
    <path class="st1" d="m224.3 70.3-3.5 20.9L241.6 80l-17.3-9.7z"/>
    <path class="st0" d="m242 80.2 17.9 4.9.2-.1 9.8-1.7 2.6-.5-7-9.2-33.1-12.8-13 1-17.8 8.5 6.1 9.8 12.6-16.9 4 7.1 17.3 9.7.4.2z"/>
    <path class="st1" d="m242 80.2 17.9 4.9.2-.1 9.8-1.7 2.6-.5-7-9.2-33.1-12.8-13 1-17.8 8.5 6.1 9.8 12.6-16.9 4 7.1 17.3 9.7.4.2z"/>
    <path class="st0" d="m232.4 60.8 33.1 12.8 7.1 9.2 1.3 17.9-61.2 26.2-11-56.5 17.7-8.5 13-1.1zM219.6 62l4.7 8.3 17.7 10 17.8 4.8 12.7-2.3m-70.9-12.5 6.1 9.7 13 11.2 20.6 8 19.4 3 13.1-1.5m-53.5-37.5-12.6 16.9m16.6-9.8-16.6 9.8m13.1 11.1 3.5-21m17.3 9.8-20.8 11.2-8.1 35.6m-5-46.7 5 46.8M242 80.2l-.7 18.9-28.6 27.7M260.1 85l-18.8 14.1m-28.6 27.7 47.7-24.7-.6-17.1m10.1-1.7-9.4 18.8m-73.6-67.2 1.3 26.1-12.7 25.2-33.4-3.3 13.1-36.7z"/>
    <path class="st0" d="M187.2 35.7 172.6 0l-39.8 39.1 23.1 13z"/>
    <path class="st0" d="M137.7 38.9 172.6 0l-54.1 8.6z"/>
    <path class="st0" d="m137.5 36.2-19-27.8-18.9 16.9 9.8 26.2z"/>
    <path class="st0" d="m156.2 52-21.8-17.7L109 50.6l6.6 15.6 31.6 7.4z"/>
    <path d="m119.9 49.9 6.9 25.1-6.9 27.4-33.4 4 4.9-38.7z"/>
    <path d="M120.3 50.6 92.5 11.5 68 65.6l25.4 7.7z"/>
    <path d="m72.8 64.4 19.7-52.9-45.1 27.4z"/>
    <path d="m71.9 61.8-24.5-23-14.8 20.6 15.2 23.4z"/>
    <path d="M93.6 73.1 68.5 60.6 47.3 82l9.8 13.8 32.4.4z"/>
    <path class="st0" d="M40.4 64.2 21.8 75.9l-8.3 22.2 25.4 24.3 15.8-28.2z"/>
    <path class="st0" d="m39.7 64.3 42.8-7.1-7.5 50.9-24.8-11.6z"/>
    <path class="st0" d="m71.7 104.2 10.8-47 23 47.1z"/>
    <path class="st0" d="m73.7 103.1 31.9 1.1 1.6 22.9-24.4 5.2z"/>
    <path class="st0" d="m50.1 96.3 27 8.2 6.5 27.6-15.1 2.5-26.8-20.8z"/>
    <path class="st2" d="m103.2 78.6-7.3 20.8 7.3 22.5 34.9 3.3-5-31.8z"/>
    <path class="st2" d="m102.7 79.2 29.2-32.1 25.6 44.5-26.6 6.3z"/>
    <path class="st2" d="m152.6 90.6-20.7-43.5 47.3 22.6z"/>
    <path class="st2" d="m153.4 88.5 25.8-18.9 15.5 16.9-16 19.3z"/>
    <path class="st2" d="M130.7 97.8 157 87.5l22.3 17.6-10.3 11.3-34 .4z"/>
    <path d="M0 107.1h270.8v40.1H0z"/>
    <path d="m13.7 145.3 17.9 86 207.9-.7 17.6-87.8z"/>
    <circle cx="72.9" cy="230.7" r="32.5"/>
    <circle class="st3" cx="72.9" cy="230.7" r="16"/>
    <circle cx="196.2" cy="230.9" r="32.5"/>
    <circle class="st3" cx="196.2" cy="230.9" r="16"/>
    <path class="st3" d="M48.6 158.5h175.2v8.6H48.6zm.2 17.6H224v8.6H48.8z"/>
</svg>
