<svg xmlns="http://www.w3.org/2000/svg" width="921.1" height="838.4" style="overflow:visible;enable-background:new 0 0 921.1 838.4" xml:space="preserve">
    <style>
        .st0{fill:#010001}.st1{fill:none;stroke:#000;stroke-width:8;stroke-miterlimit:10}.st2{fill:#535558}.st3{fill:#a6a6a8}.st5{fill:#545558}.st6{fill:#010000}.st7{fill:#e59391}.st9{fill:#fff}.st10{fill:#ea4043}.st11{fill:#0e170f}.st13{display:none;fill:#fff}.st14{fill:#d74d4a}.st15{fill:#e69491}.st23{fill:#d84d4a}.st24{display:none}.st26{display:inline}.st27{display:none;fill:#ed1c24}.st28{fill:#efefef}.st30{display:inline;fill:#a6a6a8}.st31{fill:#eeefef}.st34{fill:#f3cfcf}
    </style>
    <path class="st0" d="M877.6 602.2H247.5L395 262.5l443.1 183.2z"/>
    <path class="st1" d="M899.9 481.5c-8.9-2.8-18.4 2.2-21.3 11.1-2.8 8.9 2.2 18.4 11.1 21.3"/>
    <path class="st1" d="M870.7 574c16.6 5.2 34.4-4 39.6-20.7 5.2-16.6-4-34.4-20.7-39.6"/>
    <circle class="st0" cx="899.8" cy="477.3" r="18.7"/>
    <path class="st2" d="M632.5 577.5h126.4v58.6H632.5z"/>
    <path class="st2" d="M838.1 445.7 707.2 636h213.9z"/>
    <path class="st3" d="M396.7 647.4 240 614.2l42.3-93.6 123.1 90.7zM314 162.2l96.9 210 21-210.6z"/>
    <path class="st5" d="m552.6 162.2-141.7 210 21-210.6z"/>
    <path class="st3" d="m617.4 278.4-206.5 93.8 141.7-210h21.6z"/>
    <path class="st5" d="m314 162.2 96.9 210-172.1-92z"/>
    <path class="st3" d="m410.9 372.2-183.7 59.6-14.4-109.9 26-41.7z"/>
    <path class="st5" d="m312.9 552.1 98-179.9-183.7 59.6 10.9 85.9z"/>
    <path class="st3" d="m483.2 582.8-72.3-210.6-98 179.9L435.1 607z"/>
    <path class="st5" d="m582.4 490.2-26.2 56.7-73 35.9-72.3-210.6z"/>
    <path class="st5" d="m631 386.8-220.1-14.6 206.5-93.8 29.1 76.2z"/>
    <path class="st3" d="M582.4 490.2 631 386.8l-220.1-14.6z"/>
    <path d="M315.2 282.5c-4.9-15.6 3.8-32.2 19.4-37 15.6-4.9 32.2 3.8 37 19.4"/>
    <path class="st6" d="M471 260.6c4.2-15.8 20.4-25.1 36.2-20.9s25.1 20.4 20.9 36.2"/>
    <path d="M341 284h169.1v203.1H341z"/>
    <path class="st7" d="m464.3 487.1-82.1-.1 34-203h18.9z"/>
    <path style="fill:#fffeff" d="m464.3 487.1-82.1-.1 16.5-98.4 51.4-.5z"/>
    <path d="m424.9 404.4-26.2-15.8 51.4-.5zM393.8 417.4l-1 6.9 20.1-1.1zM396.6 400.8l-1 6.2 16.5-.4zM395.3 409.2l-1 5.7 16-1.9zM451.9 399.6l1.1 7.9-21.4-1zM453.3 409.9l1 7.1-18.5-1zM454.6 419l1 7-18.7-.9zM459.9 455.9l-36.7-8.2.9-2.2 35.3 7.2z"/>
    <path d="m387.4 456 .5-3.2 37.4-7.4.5 2.4z"/>
    <path d="M425.8 448.1h-2.4l.7-43.7h1.6z"/>
    <path class="st9" d="M401.4 344.9c-5 5.1-13.7 15.2-30.7 15.2s-25.6-10.9-30.7-15.2c5.1-5 13.7-15.2 30.7-15.2s23.9 8.6 30.7 15.2z"/>
    <circle class="st10" cx="370.3" cy="344.9" r="15.2"/>
    <circle class="st11" cx="370.3" cy="345" r="12.9"/>
    <path class="st9" d="M510.3 345.5c-5 5.1-13.7 15.2-30.7 15.2-16.9 0-25.6-10.9-30.7-15.2 5.1-5 13.7-15.2 30.7-15.2 16.9 0 23.8 8.6 30.7 15.2z"/>
    <circle class="st10" cx="479.2" cy="345.5" r="15.2"/>
    <circle class="st11" cx="479.1" cy="345.6" r="12.9"/>
    <path style="fill:#a6a5a8" d="m316.4 681.6 284.4-61.4-41.1-97.3-255.8 121.9z"/>
    <path class="st9" d="M281.5 682.5c-.6-23.5 17.9-43.1 41.4-43.8 23.5-.6 43.1 17.9 43.8 41.4M343.6 624.8c4.9-23 27.6-37.7 50.6-32.8 23 4.9 37.7 27.6 32.8 50.6"/>
    <path d="m592.2 360.7-112.4 43.5c-.8.3-1.7-.1-2-.9-.3-.8.1-1.7.9-2L591 357.8c.8-.3 1.7.1 2 .9.4.8 0 1.7-.8 2zM574.3 405.1l-79.7 7.6c-.9.1-1.6-.6-1.7-1.4-.1-.9.6-1.6 1.4-1.7L574 402c.9-.1 1.6.6 1.7 1.4.1.8-.5 1.6-1.4 1.7zM565.4 453l-75.2-27.3c-.8-.3-1.2-1.2-.9-2 .3-.8 1.2-1.2 2-.9l75.2 27.3c.8.3 1.2 1.2.9 2-.3.7-1.2 1.2-2 .9zM261.8 356.4l112.4 43.5c.8.3 1.7-.1 2-.9.3-.8-.1-1.7-.9-2l-112.4-43.5c-.8-.3-1.7.1-2 .9-.3.8.1 1.7.9 2zM283.2 405.2l79.7 7.6c.9.1 1.6-.6 1.7-1.4.1-.9-.6-1.6-1.4-1.7l-79.7-7.6c-.9-.1-1.6.6-1.7 1.4-.1.9.6 1.6 1.4 1.7zM291.3 453.1l75.2-27.3c.8-.3 1.2-1.2.9-2-.3-.8-1.2-1.2-2-.9l-75.2 27.3c-.8.3-1.2 1.2-.9 2 .2.7 1.1 1.2 2 .9zM506.1 1.5v12c7.6 1.6 14.7 4.3 21.2 8l8.6-8.6c-9.1-5.6-19.3-9.5-29.8-11.4zM460.2 5.3c-8.9 3.2-17 7.8-24.1 13.3l7.5 9.1c10.4-8 22.9-13.4 36.5-15.2V.6c-6.7.8-13.4 2.3-19.9 4.7zM556 29.5l-8.3 8.3c4.6 5.2 8.5 11.1 11.5 17.5l11.9-2c-3.7-8.9-8.9-16.9-15.1-23.8zM541.1 145.4l7.5 9.1c7.4-6.5 13.6-14.2 18.3-22.6l-11-4.4c-4 6.6-9 12.7-14.8 17.9zM577.9 78.6l-11.6 2c.3 2.5.4 5.1.4 7.7 0 5.1-.5 10-1.4 14.8l11.1 4.4c2-9.3 2.6-19.1 1.5-28.9z"/>
    <path class="st14" d="M565.2 103.1c-1.7 8.7-4.9 16.9-9.3 24.3l11 4.4c4.3-7.6 7.5-15.8 9.4-24.3l-11.1-4.4z"/>
    <path class="st15" d="M573.2 58.3c-.6-1.7-1.3-3.3-2-5l-11.9 2c3.7 7.8 6.2 16.3 7 25.2l11.6-2c-.8-6.7-2.3-13.5-4.7-20.2z"/>
    <path class="st14" d="m535.9 12.8-8.6 8.6c7.7 4.3 14.6 9.9 20.4 16.5l8.3-8.3c-5.8-6.7-12.7-12.3-20.1-16.8z"/>
    <path class="st15" d="M480 .6v11.8c3.3-.4 6.7-.7 10.2-.7 5.5 0 10.8.6 15.9 1.7v-12C497.6-.1 488.8-.4 480 .6z"/>
    <path d="M398.9 141.5s5.8 5.1 14.9 4.8c9.3-.4 13.5-6.7 21.9-6.2 11.4.6 29.8 4.2 29.8 4.2" style="fill:none;stroke:#f3cfcf;stroke-width:3;stroke-linecap:round;stroke-miterlimit:10"/>
    <circle cx="449" cy="39" r="24.3"/>
    <path d="M474.5 162H492l-3.5-10.2z"/>
    <path d="m499 162.1-10.1-.1-9.9-20 12.2-9.2zM507 162.1l19.7-.1-4-11.3z"/>
    <path d="m531.8 162.1-11.3-.1-2.5-33.6 16.6 3.5zM477.7 151.8c-21.1 5.7-39.3 10.5-52.6-5.2l48-13.1"/>
    <path d="m478.1 85.9-3.3 55.5-55.3-3.3v-.2c1.8-30.6 28-53.9 58.6-52z"/>
    <circle cx="449" cy="39" r="16.7" style="fill:#d84d49"/>
    <circle cx="449" cy="39" r="9" style="fill:#e69391"/>
    <path d="M540.1 113.8c-4.2 7.6-10.2 12.2-14 10.4-4-1.9-3.9-10.6.3-19.3 1-2.1 2.1-3.9 3.3-5.6-2.9-2.8-6.1-5-9.6-6.7.6 2.9.8 6.3.5 9.9-.9 9.6-5.2 17.1-9.7 16.7-4.5-.4-7.4-8.5-6.5-18.2.4-4.6 1.6-8.7 3.3-11.7-.9-.1-1.8-.1-2.8-.1-3.7 0-7.1.5-10.3 1.4 1.6 2.6 3.1 6 3.9 9.9 2.1 9.4.3 17.9-4.1 18.9-4.4 1-9.7-5.8-11.8-15.3-.5-2.4-.8-4.7-.9-6.8-13.6 11.1-20.1 32.7-20.1 57.1h86.9c0-15.2-2.9-29.4-8.4-40.6z" style="fill:#000001"/>
    <path d="M494.5 119.4c4.4-1 6.2-9.4 4.1-18.9-.9-3.8-2.3-7.3-3.9-9.9-4.8 1.3-9.1 3.6-12.8 6.7.1 2.1.3 4.4.9 6.8 2 9.5 7.3 16.3 11.7 15.3z" style="fill:#f3cecf"/>
    <path d="M511 119.2c4.5.4 8.8-7.1 9.7-16.7.3-3.6.1-7-.5-9.9-3.8-1.8-7.9-2.9-12.4-3.2-1.6 3-2.8 7.1-3.3 11.7-.9 9.6 2 17.7 6.5 18.1z" style="fill:#e79390"/>
    <path d="M526.2 124.2c3.8 1.8 9.8-2.8 14-10.4-2.8-5.7-6.3-10.6-10.4-14.5-1.2 1.6-2.3 3.5-3.3 5.6-4.3 8.7-4.4 17.3-.3 19.3z" style="fill:#d94d4a"/>
    <circle class="st9" cx="452.8" cy="116.9" r="15.5"/>
    <circle class="st23" cx="452.7" cy="116.6" r="7.2"/>
    <circle cx="452.8" cy="116.9" r="2.5"/>
    <ellipse transform="rotate(-57.281 697.12 131.98)" class="st9" cx="697.1" cy="132" rx="18.3" ry="11.7"/>
    <path class="st7" d="m684.3 131.8 18.2 11.9 6.7-6.1-22.3-14.5z"/>
    <path class="st5" d="m723.1 102.7-10.2-6.6-14 6.4 24.1 15.7z"/>
    <path class="st3" d="m716.7 128.3-24.4-15.9-4 6.1-1.4 4.6 22.3 14.5 3.6-3.2z"/>
    <path class="st5" d="m692.3 112.4 24.4 15.9 6.3-9.7v-.4l-24.1-15.7-.4.2z"/>
    <path d="m735.5 109.9-13.9 6.5-13.9-9.7-.8-15.3 12.5-17.9 8.1-2.8 21 15.1-.9 10z"/>
    <path d="m728.755 55.453 1.99.194-1.855 19.01-1.99-.194zM744.813 87.655l-.93-1.77 16.91-8.882.93 1.77z"/>
    <path class="st6" d="M730.4 150.5c-1.7-.2-14.1-14.9-13.5-32.5s14.7-31.6 15.8-31.5c1.1.1 14.1 14.9 13.5 32.5s-14.3 31.6-15.8 31.5z"/>
    <path class="st6" d="M668.9 100.1c.5 1.7 17.4 11.6 35.1 7.9 17.7-3.7 29.2-20.3 28.9-21.4-.3-1.1-17.4-11.6-35.1-7.9-17.6 3.7-29.3 19.9-28.9 21.4z"/>
    <path id="XMLID_7_" class="st9" d="m705.6 153.9-3.4 2.3-4.1-1 2.4 3.4-1 4 3.4-2.3 4 1-2.3-3.4z"/>
    <path id="XMLID_4_" class="st9" d="m671.2 141.4-2.9 2-3.5-.9 2 3-.8 3.4 2.9-2 3.5.9-2-3z"/>
    <path id="XMLID_3_" class="st9" d="m673.3 129.2-2.5 1.7-3-.7 1.7 2.5-.7 3 2.5-1.7 3 .7-1.8-2.5z"/>
    <circle class="st9" cx="730.6" cy="74.8" r="5.2"/>
    <circle class="st10" cx="730.6" cy="74.8" r="4.2"/>
    <circle cx="730.6" cy="74.7" r="3.1"/>
    <circle class="st9" cx="744.9" cy="86.3" r="5.2"/>
    <circle class="st10" cx="744.9" cy="86.3" r="4.2"/>
    <circle cx="744.9" cy="86.3" r="3.1"/>
    <path class="st2" d="M159.2 556.7 95 582.2l-75-72.4L.1 442.2l85.6 28.1z"/>
    <path class="st28" d="M19.8 509.6 0 442l85.6 28.1z"/>
    <path style="fill:#000100" d="M229.4 582.3H95l37.6-187.2h66.6z"/>
    <path class="st31" d="m199.3 534.3-69.1-.2V393.5h69.1z"/>
    <path class="st31" d="m155.4 414.1-85.8 26.6 19.9-87.6zM261.9 377.3l-85.8 26.6 19.9-87.6z"/>
    <path d="m172.8 437.8-96.6-88.1 124.6-39.6z"/>
    <circle cx="174.2" cy="436.8" r="14" style="fill:#e79491"/>
    <path class="st23" d="M114.4 405.9c.4.2.8-.2.7-.6-1.1-4.6-4.3-8.6-9-10.7-4.7-2-9.8-1.6-13.9.8-.4.2-.3.7 0 .9l22.2 9.6zM217.7 349.6c.3-.3.1-.8-.4-.8-4.7-.3-9.5 1.5-12.9 5.4-3.3 3.9-4.4 8.9-3.4 13.5.1.4.6.5.9.2l15.8-18.3z"/>
    <path d="m62.3 321 30.6 11.1 30.5 11.1-20.3 19.8-20.4 19.7-10.2-30.8zM200.2 276.8l9 30 9 30.1-28-5.1-27.9-5.1 19-24.9zM152 584.8l.2 29.2c.1 8.4-4.8 15.3-10.8 15.3-6 0-10.9-6.8-11-15.2l-.2-29.4H152z"/>
    <path class="st3" d="M130.2 520.9H152v63.8h-21.8z"/>
    <path d="m199.3 584.8.2 29.2c.1 8.4-4.8 15.3-10.8 15.3-6 0-10.9-6.8-11-15.2l-.2-29.4h21.8z"/>
    <path class="st3" d="M177.6 520.9h21.8v63.8h-21.8z"/>
    <path d="m43.6 425.4 54.5-16c.8-.2 1.3-1.1 1-1.9-.2-.8-1.1-1.3-1.9-1l-54.5 16c-.8.2-1.3 1.1-1 1.9.2.8 1 1.2 1.9 1zM67.6 439.4l37.2-23.4c.7-.4.9-1.3.5-2s-1.3-.9-2-.5L66.1 437c-.7.4-.9 1.3-.5 2 .5.7 1.4.9 2 .4zM88.5 458l23.9-37.1c.4-.7.2-1.6-.4-2-.7-.4-1.6-.2-2 .4l-24 37.1c-.4.7-.2 1.6.4 2 .8.5 1.7.3 2.1-.4zM259.8 331.1 218 369.5c-.6.6-1.6.5-2.2-.1-.6-.6-.5-1.6.1-2.2l41.8-38.4c.6-.6 1.6-.5 2.2.1.5.6.5 1.6-.1 2.2zM259.3 358.9 220 378.6c-.7.4-1.6.1-2-.7-.4-.7-.1-1.6.7-2l39.3-19.7c.7-.4 1.6-.1 2 .7.4.8.1 1.7-.7 2zM264.4 386.4l-44.1 1.3c-.8 0-1.5-.6-1.5-1.4 0-.8.6-1.5 1.4-1.5l44.1-1.3c.8 0 1.5.6 1.5 1.4.1.8-.6 1.4-1.4 1.5z"/>
    <path class="st28" d="M739.2 367.1c-14.7 15.6-32.2 29.7-49.1 40.8-9.7 6.4-19.2 12-21.4 13.3l-29.5 58s6.3-4.3 11.3-8.1c5.5-4.2 46.2-29.8 85.5-47.7l16.4-6.9 2.7-1.2 3.3-16.5c0-.1-19-31.5-19.2-31.7z"/>
    <path class="st28" d="m859.6 320.6 3.3-2.3c.7-19.3-5.6-36.2-19.1-46-26.4-19.1-70-3.8-97.4 34.1-27.4 37.9-28.3 84.1-2 103.2 22.3 16.2 57.1 7.6 83.9-18.4-.7-.5-1.3-1.2-1.6-2l4.9-1.4c3.4-3.6 6.6-7.5 9.7-11.6-1.2-.3-2.2-1.2-2.6-2.5l5.4-1.6c7.8-11.5 13.1-23.7 16.1-35.5-1.6.5-3.4-.2-4.2-1.8l5.2-2.6c.7-3.4 1.1-6.7 1.4-10-1.1-.1-2.3-.6-3-1.6zm-119.1 45.9c-.2-.2-.5-.3-.7-.5.8-.9 1.6-1.7 2.4-2.6l3.2 1.9c-1 1.7-3.2 2.3-4.9 1.2zM825 339c.3 2-1 3.8-3 4.1-2 .3-3.8-1-4.1-3l7.1-1.1zm-52-5.7 6.5 3.1c-.9 1.8-3 2.5-4.8 1.7-1.8-.8-2.6-3-1.7-4.8zm-20.8 18.3c.7-.9 1.5-1.9 2.2-2.9l3.2 1.8c-1 1.7-3.2 2.3-4.9 1.3-.3 0-.4-.1-.5-.2zm-.4 34.4c-1.8-.7-2.8-2.8-2-4.7l6.7 2.7c-.8 1.8-2.9 2.7-4.7 2zm11.2-50.2 3.3 1.5c-.8 1.8-3 2.6-4.8 1.8-.2-.1-.3-.1-.4-.2.7-1.1 1.3-2.1 1.9-3.1zm-1.8 31.4c-1.8-.8-2.7-2.9-1.9-4.7l6.7 2.9c-.9 1.8-3 2.6-4.8 1.8zm7.7-16.5c-1.8-.8-2.6-2.9-1.8-4.8l6.6 3c-.9 1.8-3 2.6-4.8 1.8zm5.4 29.5c-1.9-.6-3-2.5-2.5-4.5l7 2c-.6 1.9-2.6 3-4.5 2.5zm5.7-16.9c-1.9-.5-3.1-2.5-2.5-4.4l7 1.9c-.6 1.9-2.6 3-4.5 2.5zm4.3-16c-1.9-.5-3.1-2.4-2.6-4.4l7 1.8c-.5 1.9-2.5 3.1-4.4 2.6zm6.8 45.4c-2-.3-3.3-2.1-3.1-4.1l7.2 1c-.3 2-2.1 3.3-4.1 3.1zm2.7-17.9c-2-.3-3.4-2.1-3.1-4l7.2.9c-.3 1.9-2.1 3.3-4.1 3.1zm1.9-16.1c-2-.2-3.4-2-3.2-4l7.2.8c-.3 2-2.1 3.4-4 3.2zm2.1-14.1c-2-.2-3.4-2-3.2-3.9l7.2.7c-.3 1.9-2.1 3.4-4 3.2zm9.4 2.2 7.2-.6c.1 2-1.3 3.7-3.3 3.9-2 .1-3.8-1.3-3.9-3.3zm.8 15.9 7.2-.3c.1 2-1.5 3.7-3.5 3.7-2 .2-3.6-1.4-3.7-3.4zm4.8 20.6c-2 .2-3.8-1.2-4-3.2l7.2-.8c.3 2-1.2 3.8-3.2 4zm11-25.7c-2 .4-3.9-.9-4.3-2.8l7.1-1.4c.4 1.9-.9 3.8-2.8 4.2zm3.8 15.9c-1.9.5-3.9-.7-4.4-2.6l7-1.7c.5 1.9-.7 3.8-2.6 4.3zm3.3-29.8 6.9-2.1c.6 1.9-.5 3.9-2.4 4.5-1.9.5-3.9-.5-4.5-2.4zm8.5 17c-1.9.5-3.9-.6-4.4-2.5l7-1.9c.5 2-.7 3.9-2.6 4.4zm6.5-25.8c-1.8.8-3.9 0-4.8-1.8l6.6-2.9c.9 1.7.1 3.9-1.8 4.7zm5.8 14.9c-1.9.7-3.9-.2-4.7-2l6.7-2.7c.8 1.9-.1 4-2 4.7z"/>
    <path d="M780 363.3c1.9.5 3.9-.6 4.4-2.5l-7-1.9c-.5 1.9.6 3.9 2.6 4.4zM793.8 374.8c2 .3 3.8-1.1 4.1-3.1l-7.2-.9c-.3 1.9 1.1 3.7 3.1 4zM795.7 358.7c2 .2 3.8-1.2 4-3.2l-7.2-.8c-.2 2 1.2 3.8 3.2 4zM811.7 366.2c2-.1 3.5-1.7 3.5-3.7l-7.2.3c.1 1.9 1.7 3.5 3.7 3.4zM774.7 338.1c1.8.9 3.9.1 4.8-1.7l-6.5-3.1c-.9 1.8-.1 4 1.7 4.8zM784.3 347.3c1.9.5 3.9-.7 4.4-2.6l-7-1.8c-.5 2 .6 3.9 2.6 4.4zM797.8 344.6c2 .2 3.8-1.2 4-3.2l-7.2-.7c-.3 1.9 1.2 3.7 3.2 3.9zM811.1 350.1c2-.2 3.5-1.9 3.3-3.9l-7.2.6c.1 2 1.9 3.4 3.9 3.3zM822 343.1c2-.3 3.3-2.2 3-4.1l-7.1 1.2c.3 1.9 2.1 3.2 4.1 2.9zM837.8 341.5l-6.9 2.1c.6 1.9 2.6 2.9 4.5 2.4 1.9-.6 3-2.6 2.4-4.5zM768.9 350.7c1.8.8 3.9 0 4.8-1.8l-6.6-3c-.9 1.9-.1 4 1.8 4.8zM826.6 353.3l-7.1 1.4c.4 1.9 2.3 3.2 4.3 2.8s3.2-2.2 2.8-4.2zM761.2 367.2c1.8.8 3.9-.1 4.7-1.9l-6.7-2.9c-.7 1.9.2 4 2 4.8zM774.3 380.2c1.9.6 3.9-.5 4.5-2.4l-7-2c-.5 1.8.6 3.8 2.5 4.4zM808.9 380.1c.2 2 2 3.4 4 3.2 2-.2 3.4-2 3.2-4l-7.2.8zM823.2 370.9c.5 1.9 2.4 3.1 4.4 2.6 1.9-.5 3.1-2.4 2.7-4.3l-7.1 1.7zM739.8 366c.2.2.4.4.7.5 1.7 1 3.9.5 5-1.2l-3.2-1.9c-.9.9-1.7 1.7-2.5 2.6zM757.5 350.6l-3.2-1.8c-.7 1-1.4 1.9-2.2 2.9.1.1.3.2.4.3 1.8.9 4 .3 5-1.4zM766.4 337.3l-3.3-1.5c-.6 1-1.2 2-1.9 3.1.1.1.3.2.4.2 1.8.8 4 0 4.8-1.8zM791.1 392.7c2 .3 3.8-1.1 4.1-3l-7.2-1c-.2 1.9 1.2 3.7 3.1 4zM751.8 386c1.8.7 3.9-.2 4.7-2l-6.7-2.7c-.8 1.9.1 4 2 4.7zM828.3 391.2l3.4-3.4-4.9 1.4c.2.8.8 1.5 1.5 2zM841.2 333c.8 1.8 3 2.6 4.8 1.8 1.8-.8 2.6-2.9 1.8-4.8l-6.6 3zM860.3 336.5c.4-1.5.7-3 1-4.5l-5.2 2.6c.7 1.7 2.5 2.4 4.2 1.9zM859.6 320.6c.7 1 1.9 1.6 3.1 1.5.1-1.3.2-2.6.2-3.8l-3.3 2.3zM847 347.8c.7 1.8 2.8 2.7 4.7 2 1.9-.7 2.8-2.8 2-4.7l-6.7 2.7zM835 358.2c.5 1.9 2.5 3 4.4 2.5 1.9-.5 3.1-2.5 2.6-4.4l-7 1.9zM841.4 376.1c.2-.2.3-.4.5-.6.8-1.1 1.6-2.3 2.4-3.4l-5.4 1.6c.3 1.2 1.3 2.1 2.5 2.4z"/>
    <path d="m801.5 430.4-4.4-18.2c-3.8 1.6-7.6 2.9-11.8 3.9l4.1 17.2" style="fill:#535657"/>
    <path class="st28" d="m772.7 417 4.6 19.2 12.1-2.9-4.7-19.6c-3.9 1-7.9 2.1-12 3.3z"/>
    <circle class="st34" cx="803.5" cy="270.8" r="51.1"/>
    <path d="m810.6 219.6-4.1 32.4 22.9-26c-5.6-3.2-12-5.5-18.8-6.4z" style="fill:#535458"/>
    <path class="st34" d="M803.9 219.2c-5.2 0-10.3.8-15.1 2.3l17.7 30.5 4.1-32.4c-2.2-.3-4.4-.4-6.7-.4z"/>
    <path class="st3" d="M803.9 219.2c-5.2 0-10.3.8-15.1 2.3l17.7 30.5 4.1-32.4c-2.2-.3-4.4-.4-6.7-.4z"/>
    <path d="M765.4 195.1c.1 26.5 17.3 49 41.1 56.9l-39.9-68.8c-.8 3.8-1.2 7.8-1.2 11.9zM858 204.3c-5.3 26-26.5 44.6-51.5 47.7l52.7-59.7c0 4-.4 8-1.2 12z"/>
    <path class="st3" d="M801.6 282.3c-.8-.1-1.5.5-1.6 1.4s.5 1.6 1.3 1.7 1.5-.5 1.6-1.4c.1-.8-.5-1.6-1.3-1.7z"/>
    <path d="m814 281.4-17.5-1.8 7.1 20.6 10.4-18.8zm-5.4 1.7c.8.1 1.4.8 1.3 1.7-.1.8-.8 1.4-1.6 1.4s-1.4-.8-1.3-1.7c0-.9.8-1.5 1.6-1.4zm-7.3 2.2c-.8-.1-1.4-.8-1.3-1.7s.8-1.4 1.6-1.4 1.4.8 1.3 1.7c-.1.9-.8 1.5-1.6 1.4z"/>
    <path class="st3" d="M808.2 286.1c.8.1 1.5-.5 1.6-1.4.1-.8-.5-1.6-1.3-1.7-.8-.1-1.5.5-1.6 1.4 0 .8.5 1.6 1.3 1.7z"/>
    <circle class="st9" cx="827.7" cy="259.5" r="18.7"/>
    <circle class="st10" cx="827.7" cy="259.5" r="16.1"/>
    <circle cx="827.7" cy="259.5" r="11.4"/>
    <circle class="st9" cx="784.4" cy="256.2" r="18.7"/>
    <circle class="st10" cx="784.4" cy="256.2" r="16.1"/>
    <circle cx="784.4" cy="256.2" r="11.4"/>
    <path d="M773.5 308.8c1.6-21.4-16.8-36-24.9-41.3-2.3-1.5-3.7-2.3-3.7-2.3l-76.6 156.5s.2-.1.5-.3c2.2-1.3 11.7-7 21.4-13.3 16.9-11.1 34.4-25.1 49.1-40.8.8-.9 1.6-1.7 2.4-2.6 3.5-3.8 6.8-7.8 9.9-11.8.7-.9 1.5-1.9 2.2-2.9 6.9-9.3 12.6-18.9 16.5-28.6.2-.6.5-1.2.7-1.8 1.5-3.7 2.3-7.3 2.5-10.8z"/>
</svg>
