<svg xmlns="http://www.w3.org/2000/svg" xmlns:xlink="http://www.w3.org/1999/xlink" width="708.2" height="520.9" style="overflow:visible;enable-background:new 0 0 708.2 520.9" xml:space="preserve">
    <style>
        .st1,.st3,.st4{clip-path:url(#SVGID_2_)}.st1{fill:none;stroke:#000;stroke-width:8;stroke-miterlimit:10}.st3,.st4{fill:#535558}.st4{fill:#a6a6a8}.st5{fill:#545558}.st10,.st11,.st12,.st5,.st6{clip-path:url(#SVGID_2_)}.st10,.st11,.st12{fill:#fff}.st11,.st12{fill:#ea4043}.st12{fill:#0e170f}
    </style>
    <path style="fill:#010001" d="M664.8 440.6H34.7l147.4-339.7 443.2 183.2z"/>
    <defs>
        <path id="SVGID_1_" d="M0 0h708.2v520.9H0z"/>
    </defs>
    <clipPath id="SVGID_2_">
        <use xlink:href="#SVGID_1_" style="overflow:visible"/>
    </clipPath>
    <path class="st1" d="M687.1 319.8c-8.9-2.8-18.4 2.2-21.3 11.1-2.8 8.9 2.2 18.4 11.1 21.3"/>
    <path class="st1" d="M657.9 412.4c16.6 5.2 34.4-4 39.6-20.7 5.2-16.6-4-34.4-20.7-39.6"/>
    <path d="M692.6 297.9c-9.8-3.1-20.3 2.4-23.4 12.2-3.1 9.8 2.4 20.3 12.2 23.4 9.8 3.1 20.3-2.4 23.4-12.2 3.1-9.8-2.4-20.3-12.2-23.4" style="clip-path:url(#SVGID_2_);fill:#010001"/>
    <path class="st3" d="M419.7 415.8h126.4v58.6H419.7z"/>
    <path class="st3" d="m625.3 284.1-131 190.2h213.9z"/>
    <path class="st4" d="M183.8 485.8 27.1 452.6 69.4 359l123.2 90.7zM101.2.6l96.9 210L219.1 0z"/>
    <path class="st5" d="m339.8.6-141.7 210L219.1 0z"/>
    <path class="st4" d="m404.5 116.8-206.4 93.8L339.8.6h21.6z"/>
    <path class="st5" d="m101.2.6 96.9 210-172.1-92z"/>
    <path class="st4" d="M198.1 210.6 14.3 270.2 0 160.3l26-41.7z"/>
    <path class="st5" d="m100.1 390.5 98-179.9-183.8 59.6 11 85.9z"/>
    <path class="st4" d="m270.4 421.2-72.3-210.6-98 179.9 122.2 54.9z"/>
    <path class="st5" d="m369.5 328.6-26.1 56.7-73 35.9-72.3-210.6zM418.2 225.1l-220.1-14.5 206.4-93.8 29.2 76.1z"/>
    <path class="st4" d="m369.5 328.6 48.7-103.5-220.1-14.5z"/>
    <path class="st6" d="M102.4 120.9c-4.9-15.6 3.8-32.2 19.4-37 15.6-4.9 32.2 3.8 37 19.4"/>
    <path d="M258.2 99c4.2-15.8 20.4-25.1 36.2-20.9 15.8 4.2 25.1 20.4 20.9 36.2" style="clip-path:url(#SVGID_2_);fill:#010000"/>
    <path class="st6" d="M128.1 122.3h169.1v203.1H128.1z"/>
    <path style="clip-path:url(#SVGID_2_);fill:#e59391" d="m251.5 325.5-82.1-.1 33.9-203.1h19z"/>
    <path style="clip-path:url(#SVGID_2_);fill:#fffeff" d="m251.5 325.5-82.1-.1 16.5-98.5 51.4-.4z"/>
    <path class="st6" d="m212.1 242.8-26.2-15.9 51.4-.4zM181 255.8l-1.1 6.8 20.1-1zM183.8 239.1l-1.1 6.3 16.6-.4zM182.4 247.5l-1 5.8 16.1-1.9zM239 238l1.1 7.9-21.3-1zM240.4 248.3l1.1 7-18.5-.9zM241.8 257.4l1 7-18.8-1zM247.1 294.3l-36.7-8.2.9-2.2 35.3 7.1z"/>
    <path class="st6" d="m174.5 294.4.6-3.3 37.4-7.3.5 2.3z"/>
    <path class="st6" d="M213 286.5h-2.4l.7-43.7h1.6z"/>
    <path class="st10" d="M188.6 183.3c-5 5.1-13.7 15.2-30.7 15.2s-25.6-10.9-30.7-15.2c5.1-5 13.7-15.2 30.7-15.2s23.9 8.6 30.7 15.2"/>
    <path class="st11" d="M172.7 183.3c0 8.4-6.8 15.2-15.2 15.2s-15.2-6.8-15.2-15.2c0-8.4 6.8-15.2 15.2-15.2s15.2 6.8 15.2 15.2"/>
    <path class="st12" d="M170.4 183.4c0 7.1-5.8 12.9-12.9 12.9-7.1 0-12.9-5.8-12.9-12.9 0-7.1 5.8-12.9 12.9-12.9 7.1 0 12.9 5.8 12.9 12.9"/>
    <path class="st10" d="M297.5 183.9c-5 5.1-13.7 15.2-30.7 15.2-16.9 0-25.6-10.9-30.7-15.2 5.1-5 13.7-15.2 30.7-15.2 16.9 0 23.8 8.6 30.7 15.2"/>
    <path class="st11" d="M281.5 183.9c0 8.4-6.8 15.2-15.2 15.2-8.4 0-15.2-6.8-15.2-15.2 0-8.4 6.8-15.2 15.2-15.2 8.4 0 15.2 6.8 15.2 15.2"/>
    <path class="st12" d="M279.2 184c0 7.1-5.8 12.9-12.9 12.9-7.1 0-12.9-5.8-12.9-12.9 0-7.1 5.8-12.9 12.9-12.9 7.1 0 12.9 5.8 12.9 12.9"/>
    <path style="clip-path:url(#SVGID_2_);fill:#a6a5a8" d="M103.5 520 388 458.6l-41.2-97.4L91 483.1z"/>
    <path class="st10" d="M68.6 520.9c-.6-23.5 17.9-43.1 41.4-43.8 23.5-.6 43.1 17.9 43.8 41.4M130.8 463.2c4.9-23 27.6-37.7 50.6-32.8 23 4.9 37.7 27.6 32.8 50.6"/>
    <path class="st6" d="m379.3 199.1-112.4 43.5c-.8.3-1.7-.1-2-.9-.3-.8.1-1.7.9-2l112.4-43.5c.8-.3 1.7.1 2 .9.4.8 0 1.7-.9 2M361.5 243.5l-79.7 7.6c-.9.1-1.6-.6-1.7-1.4-.1-.9.6-1.6 1.4-1.7l79.7-7.6c.9-.1 1.6.6 1.7 1.4.1.8-.6 1.6-1.4 1.7M352.5 291.3 277.3 264c-.8-.3-1.2-1.2-.9-2 .3-.8 1.2-1.2 2-.9l75.2 27.3c.8.3 1.2 1.2.9 2-.2.8-1.1 1.2-2 .9M49 194.8l112.4 43.5c.8.3 1.7-.1 2-.9.3-.8-.1-1.7-.9-2L50.1 191.8c-.8-.3-1.7.1-2 .9-.3.8.1 1.8.9 2.1M70.4 243.6l79.7 7.6c.9.1 1.6-.6 1.7-1.4.1-.9-.6-1.6-1.4-1.7l-79.7-7.6c-.9-.1-1.6.6-1.7 1.4-.1.8.5 1.6 1.4 1.7M78.4 291.4l75.2-27.3c.8-.3 1.2-1.2.9-2-.3-.8-1.2-1.2-2-.9l-75.2 27.3c-.8.3-1.2 1.2-.9 2 .3.8 1.2 1.2 2 .9"/>
</svg>
