<svg xmlns="http://www.w3.org/2000/svg" xmlns:xlink="http://www.w3.org/1999/xlink" width="181" height="162.1" style="overflow:visible;enable-background:new 0 0 181 162.1" xml:space="preserve">
    <style>
        .st0,.st1,.st2{clip-path:url(#SVGID_2_)}.st1{fill:#d74d4a}.st2{fill:#e69491}
    </style>
    <defs>
        <path id="SVGID_1_" d="M0 0h181v162.1H0z"/>
    </defs>
    <clipPath id="SVGID_2_">
        <use xlink:href="#SVGID_1_" style="overflow:visible"/>
    </clipPath>
    <path class="st0" d="M108.7 1.5v12c7.6 1.6 14.7 4.3 21.2 8l8.6-8.6c-9.1-5.6-19.2-9.5-29.8-11.4M62.8 5.3c-8.9 3.2-17 7.8-24.1 13.3l7.5 9.1c10.4-8 22.9-13.4 36.5-15.2V.6c-6.7.8-13.3 2.3-19.9 4.7m95.8 24.2-8.3 8.3c4.6 5.2 8.5 11.1 11.5 17.5l11.9-2c-3.7-8.9-8.9-16.9-15.1-23.8m-14.9 115.9 7.5 9.1c7.4-6.5 13.6-14.2 18.3-22.6l-11-4.4c-4 6.6-9 12.7-14.8 17.9m36.8-66.8-11.6 2c.3 2.5.4 5.1.4 7.7 0 5.1-.5 10-1.4 14.8l11.1 4.4c2-9.3 2.6-19.1 1.5-28.9"/>
    <path class="st1" d="M167.8 103.1c-1.7 8.7-4.9 16.9-9.3 24.3l11 4.4c4.3-7.6 7.5-15.8 9.4-24.3l-11.1-4.4z"/>
    <path class="st2" d="M175.8 58.3c-.6-1.7-1.3-3.3-2-5l-11.9 2c3.7 7.8 6.2 16.3 7 25.2l11.6-2c-.7-6.7-2.3-13.5-4.7-20.2"/>
    <path class="st1" d="m138.5 12.8-8.6 8.6c7.7 4.3 14.6 9.9 20.4 16.5l8.3-8.3c-5.8-6.7-12.6-12.3-20.1-16.8"/>
    <path class="st2" d="M82.6.6v11.8c3.3-.4 6.7-.7 10.2-.7 5.4 0 10.8.6 15.9 1.7v-12C100.2-.1 91.4-.4 82.6.6"/>
    <path d="M1.5 141.5s5.8 5.1 14.9 4.8c9.3-.4 13.5-6.7 21.9-6.2 11.4.6 29.8 4.2 29.8 4.2" style="clip-path:url(#SVGID_2_);fill:none;stroke:#f3cfcf;stroke-width:3;stroke-linecap:round;stroke-miterlimit:10"/>
    <path class="st0" d="M76 39c0 13.4-10.9 24.3-24.3 24.3S27.4 52.4 27.4 39s10.9-24.3 24.3-24.3C65.1 14.6 76 25.5 76 39m1.1 123h17.6l-3.6-10.2z"/>
    <path class="st0" d="m101.6 162.1-10.1-.1-9.9-20 12.2-9.2zm8 0 19.7-.1-4-11.3z"/>
    <path class="st0" d="m134.4 162.1-11.3-.1-2.5-33.6 16.6 3.5zm-54.1-10.3c-21.1 5.7-39.3 10.5-52.6-5.2l48-13.1"/>
    <path class="st0" d="m80.7 85.9-3.3 55.5-55.3-3.4v-.2c1.8-30.5 28.1-53.8 58.6-51.9"/>
    <path d="M68.3 39c0 9.2-7.5 16.7-16.7 16.7S34.9 48.2 34.9 39s7.5-16.7 16.7-16.7S68.3 29.7 68.3 39" style="clip-path:url(#SVGID_2_);fill:#d84d49"/>
    <path d="M60.7 39c0 5-4 9-9 9s-9-4-9-9 4-9 9-9c4.9-.1 9 4 9 9" style="clip-path:url(#SVGID_2_);fill:#e69391"/>
    <path d="M142.7 113.8c-4.2 7.6-10.2 12.2-14 10.4-4-1.9-3.9-10.6.3-19.3 1-2.1 2.1-3.9 3.3-5.6-2.9-2.8-6.1-5-9.6-6.7.6 2.9.8 6.3.5 9.9-.9 9.6-5.2 17.1-9.7 16.7-4.5-.4-7.4-8.5-6.5-18.2.4-4.6 1.6-8.7 3.2-11.7-.9-.1-1.8-.1-2.8-.1-3.7 0-7.1.5-10.3 1.4 1.6 2.6 3 6 3.9 9.9 2.1 9.4.3 17.9-4.1 18.9-4.4 1-9.7-5.8-11.8-15.3-.5-2.4-.8-4.7-.9-6.8-13.6 11.1-20.1 32.7-20.1 57.1H151c.2-15.2-2.8-29.4-8.3-40.6" style="clip-path:url(#SVGID_2_);fill:#000001"/>
    <path d="M97.1 119.4c4.4-1 6.2-9.4 4.1-18.9-.9-3.8-2.3-7.3-3.9-9.9-4.8 1.3-9.1 3.6-12.8 6.7.1 2.1.4 4.4.9 6.8 2 9.5 7.3 16.3 11.7 15.3" style="clip-path:url(#SVGID_2_);fill:#f3cecf"/>
    <path d="M113.6 119.2c4.5.4 8.8-7.1 9.7-16.7.3-3.6.1-7-.5-9.9-3.8-1.8-7.9-2.9-12.4-3.2-1.6 3-2.8 7.1-3.2 11.7-1 9.6 1.9 17.7 6.4 18.1" style="clip-path:url(#SVGID_2_);fill:#e79390"/>
    <path d="M128.8 124.2c3.8 1.8 9.8-2.8 14-10.4-2.8-5.7-6.3-10.6-10.4-14.5-1.2 1.6-2.3 3.5-3.3 5.6-4.2 8.7-4.4 17.3-.3 19.3" style="clip-path:url(#SVGID_2_);fill:#d94d4a"/>
    <path d="M39.8 116.9c0 8.6 7 15.5 15.5 15.5 8.6 0 15.5-7 15.5-15.5s-7-15.5-15.5-15.5-15.5 6.9-15.5 15.5" style="clip-path:url(#SVGID_2_);fill:#fff"/>
    <path d="M48.1 116.6c0 4 3.2 7.2 7.2 7.2s7.2-3.2 7.2-7.2-3.2-7.2-7.2-7.2c-3.9-.1-7.2 3.2-7.2 7.2" style="clip-path:url(#SVGID_2_);fill:#d84d4a"/>
    <path class="st0" d="M57.9 116.9c0 1.4-1.1 2.5-2.5 2.5s-2.5-1.1-2.5-2.5 1.1-2.5 2.5-2.5c1.4.1 2.5 1.2 2.5 2.5"/>
</svg>
