<svg xmlns="http://www.w3.org/2000/svg" width="265.9" height="352.5" style="overflow:visible;enable-background:new 0 0 265.9 352.5" xml:space="preserve">
    <style>
        .st3{fill:#eeefef}.st5{fill:#d84d4a}.st6{fill:#a6a6a8}
    </style>
    <path style="fill:#535558" d="m20 233 75 72.4 64.2-25.6-73.5-86.4-85.6-28z"/>
    <path style="fill:#efefef" d="m19.8 232.8 65.8-39.6-85.6-28z"/>
    <path style="fill:#000100" d="M229.4 305.4H95l37.6-187.2h66.6z"/>
    <path class="st3" d="m199.3 257.5-69.1-.3V116.7h69.1z"/>
    <path class="st3" d="m155.4 137.3-85.8 26.5 19.9-87.6zM261.9 100.5l-85.8 26.6L196 39.5z"/>
    <path d="M172.8 161 76.2 72.8l124.6-39.5z"/>
    <path d="M188.2 160c0 7.7-6.3 14-14 14s-14-6.3-14-14 6.3-14 14-14 14 6.3 14 14" style="fill:#e79491"/>
    <path class="st5" d="M114.4 129c.4.2.8-.2.7-.6-1.1-4.6-4.3-8.6-9-10.7-4.7-2-9.8-1.6-13.9.8-.4.2-.3.7 0 .9l22.2 9.6zM217.7 72.8c.3-.3.1-.8-.4-.8-4.7-.3-9.5 1.5-12.9 5.4-3.3 3.9-4.4 8.9-3.4 13.5.1.4.6.5.9.2l15.8-18.3z"/>
    <path d="m62.3 44.2 30.6 11.1 30.5 11.1-20.3 19.7-20.4 19.8-10.2-30.8zM200.2 0l9 30 9 30-28-5-27.9-5.1 19-24.9zM152 308l.2 29.2c.1 8.4-4.8 15.3-10.8 15.3-6 0-10.9-6.8-11-15.2l-.2-29.4H152z"/>
    <path class="st6" d="M130.2 244.1H152v63.8h-21.8z"/>
    <path d="m199.3 307.9.2 29.2c.1 8.4-4.8 15.3-10.8 15.3-6 0-10.9-6.8-11-15.2l-.2-29.4h21.8z"/>
    <path class="st6" d="M177.6 244.1h21.8v63.8h-21.8z"/>
    <path d="m43.6 148.6 54.5-16c.8-.2 1.3-1.1 1-1.9-.2-.8-1.1-1.3-1.9-1l-54.5 16c-.8.2-1.3 1.1-1 1.9.2.8 1 1.2 1.9 1M67.6 162.6l37.2-23.4c.7-.4.9-1.3.5-2s-1.3-.9-2-.5l-37.2 23.4c-.7.4-.9 1.3-.5 2 .5.7 1.4.9 2 .5M88.5 181.1l23.9-37.1c.4-.7.2-1.6-.4-2-.7-.4-1.6-.2-2 .4l-24 37.2c-.4.7-.2 1.6.4 2 .8.4 1.7.2 2.1-.5M259.8 54.2 218 92.6c-.6.6-1.6.5-2.2-.1-.6-.6-.5-1.6.1-2.2L257.7 52c.6-.6 1.6-.5 2.2.1.5.6.5 1.6-.1 2.1M259.3 82.1 220 101.8c-.7.4-1.6.1-2-.7-.4-.7-.1-1.6.7-2L258 79.5c.7-.4 1.6-.1 2 .7.4.6.1 1.5-.7 1.9M264.4 109.5l-44.1 1.3c-.8 0-1.5-.6-1.5-1.4 0-.8.6-1.5 1.4-1.5l44.1-1.3c.8 0 1.5.6 1.5 1.4.1.8-.6 1.5-1.4 1.5"/>
</svg>
