<svg xmlns="http://www.w3.org/2000/svg" xmlns:xlink="http://www.w3.org/1999/xlink" width="126.5" height="107.1" style="overflow:visible;enable-background:new 0 0 126.5 107.1" xml:space="preserve">
    <style>
        .st0{clip-path:url(#SVGID_2_);fill:#fff}.st2{fill:#545558}.st2,.st4,.st5,.st6{clip-path:url(#SVGID_2_)}.st5{fill:#010000}.st6{fill:#ea4043}
    </style>
    <defs>
        <path id="SVGID_1_" d="M0 0h126.5v107.1H0z"/>
    </defs>
    <clipPath id="SVGID_2_">
        <use xlink:href="#SVGID_1_" style="overflow:visible"/>
    </clipPath>
    <path class="st0" d="M70.6 84.4c-6 8.1-14.8 11.2-19.7 6.8-4.8-4.4-3.9-14.5 2.1-22.6s14.8-11.2 19.7-6.8c4.9 4.4 3.9 14.5-2.1 22.6"/>
    <path style="clip-path:url(#SVGID_2_);fill:#e59391" d="m49 76.3 18.2 11.9 6.7-6.1-22.3-14.5z"/>
    <path class="st2" d="m87.8 47.2-10.1-6.6L63.6 47l24.1 15.7z"/>
    <path style="clip-path:url(#SVGID_2_);fill:#a6a6a8" d="M81.4 72.8 57 56.9 53 63l-1.4 4.6 22.3 14.5 3.6-3.2z"/>
    <path class="st2" d="m57 56.9 24.4 15.9 6.3-9.7v-.4L63.6 47l-.3.2z"/>
    <path class="st4" d="m100.2 54.5-13.9 6.4-13.9-9.6-.8-15.4L84.1 18l8.1-2.8 21 15.1-.9 10z"/>
    <path class="st4" d="M91.568 19.022 93.428.014l1.99.194-1.86 19.009zm17.076 11.432 16.909-8.883.93 1.77-16.91 8.884z"/>
    <path class="st5" d="M95.1 95c-1.7-.2-14.1-14.9-13.4-32.6.6-17.6 14.7-31.5 15.8-31.4 1.1.1 14.1 14.9 13.5 32.5-.7 17.7-14.4 31.6-15.9 31.5"/>
    <path class="st5" d="M33.6 44.6c.5 1.7 17.4 11.6 35.1 7.9 17.7-3.7 29.2-20.3 28.9-21.4-.3-1.1-17.4-11.6-35.1-7.9C44.9 27 33.2 43.1 33.6 44.6"/>
    <path class="st0" d="m70.3 98.4-3.4 2.3-4.1-1 2.4 3.4-1 4 3.4-2.3 4 1-2.3-3.4zM35.9 85.9l-2.9 2-3.5-.8 2.1 2.9-.9 3.4 2.9-2 3.5.9-2-2.9zM38 73.7l-2.5 1.8-3-.8 1.7 2.6-.7 2.9 2.5-1.7 3 .7-1.8-2.5zm61.3-51.1c-1.8 2.2-5.1 2.5-7.3.7s-2.5-5.1-.7-7.3 5.1-2.5 7.3-.7 2.5 5.1.7 7.3"/>
    <path class="st6" d="M98.5 22c-1.5 1.8-4.1 2-5.9.6-1.8-1.5-2-4.1-.6-5.9 1.5-1.8 4.1-2 5.9-.6 1.8 1.5 2.1 4.1.6 5.9"/>
    <path class="st4" d="M98.4 19.2c0 1.7-1.4 3.1-3.1 3.1-1.7 0-3.1-1.4-3.1-3.1 0-1.7 1.4-3.1 3.1-3.1 1.7 0 3.1 1.4 3.1 3.1"/>
    <path class="st0" d="M113.6 34.2c-1.8 2.2-5.1 2.5-7.3.7s-2.5-5.1-.7-7.3 5.1-2.5 7.3-.7 2.5 5.1.7 7.3"/>
    <path class="st6" d="M112.8 33.5c-1.5 1.8-4.1 2-5.9.6-1.8-1.5-2-4.1-.6-5.9 1.5-1.8 4.1-2 5.9-.6 1.8 1.5 2.1 4.1.6 5.9"/>
    <path class="st4" d="M112.7 30.8c0 1.7-1.4 3.1-3.1 3.1-1.7 0-3.1-1.4-3.1-3.1 0-1.7 1.4-3.1 3.1-3.1 1.7 0 3.1 1.4 3.1 3.1"/>
</svg>
