<svg xmlns="http://www.w3.org/2000/svg" width="270.5" height="267.8" style="overflow:visible;enable-background:new 0 0 270.5 267.8" xml:space="preserve">
    <style>
        .st0{fill:#eb3f43}.st2{fill:#eee}
    </style>
    <path d="M62.6 90.3c-27.8 0-50.3 23.9-50.3 53.4s22.5 53.4 50.3 53.4 50.3-23.9 50.3-53.4-22.5-53.4-50.3-53.4zM53.3 188h1.9-1.9z"/>
    <path d="M66.8 89.2h149.4V142H66.8z"/>
    <path d="M266.5 141c-2.2 0-4-1.8-4-4 0-24.5-19.9-44.4-44.4-44.4-2.2 0-4-1.8-4-4s1.8-4 4-4c28.9 0 52.4 23.5 52.4 52.4 0 2.2-1.8 4-4 4zM149.5 141c-2.2 0-4-1.8-4-4 0-24.5-16.3-44.4-36.3-44.4-2.2 0-4-1.8-4-4s1.8-4 4-4c24.5 0 44.4 23.5 44.4 52.4-.1 2.2-1.9 4-4.1 4z"/>
    <path d="M230.2 141c-2.2 0-4-1.8-4-4 0-24.5-16.3-44.4-36.3-44.4-2.2 0-4-1.8-4-4s1.8-4 4-4c24.5 0 44.4 23.5 44.4 52.4-.1 2.2-1.9 4-4.1 4z"/>
    <path d="M218.1 92.6H64.8c-2.2 0-4-1.8-4-4s1.8-4 4-4h153.3c2.2 0 4 1.8 4 4s-1.8 4-4 4zM266.5 141H113.2c-2.2 0-4-1.8-4-4s1.8-4 4-4h153.3c2.2 0 4 1.8 4 4s-1.8 4-4 4z"/>
    <path d="M12.4 136.9h258.1v120.6H12.4z"/>
    <path class="st0" d="M8.8 259h96.5V140.5c0-26.6-21.6-48.3-48.2-48.3S8.8 113.9 8.8 140.5V259zm100.9 8.8H4.4c-2.4 0-4.4-2-4.4-4.4V140.5C0 109 25.6 83.4 57 83.4s57 25.6 57 57.1v122.9c0 2.4-1.9 4.4-4.3 4.4z"/>
    <ellipse cx="214.7" cy="149.5" rx="51.6" ry="62.1"/>
    <path style="fill:none;stroke:#eb3f43;stroke-width:7;stroke-miterlimit:10" d="M127.3 135.5h127.9v108.4H127.3z"/>
    <path class="st0" d="M152.2 137.6H237v58.9h-84.8z"/>
    <path class="st2" d="M171.8 46.3c1.5 1.1 2.9 2.5 4 4 1.1-1.5 2.5-2.9 4-4-1.5-1.1-2.9-2.5-4-4-1.1 1.5-2.5 2.9-4 4zm4 20.2c-2.2 0-4-1.8-4-4 0-6.7-5.4-12.1-12.1-12.1-2.2 0-4-1.8-4-4s1.8-4 4-4c6.7 0 12.1-5.4 12.1-12.1 0-2.2 1.8-4 4-4s4 1.8 4 4c0 6.7 5.4 12.1 12.1 12.1 2.2 0 4 1.8 4 4s-1.8 4-4 4c-6.7 0-12.1 5.4-12.1 12.1.1 2.2-1.7 4-4 4zM131.4 20.2c1.5 1.1 2.9 2.5 4 4 1.1-1.5 2.5-2.9 4-4-1.5-1.1-2.9-2.5-4-4-1.1 1.5-2.4 2.8-4 4zm4.1 20.1c-2.2 0-4-1.8-4-4 0-6.7-5.4-12.1-12.1-12.1-2.2 0-4-1.8-4-4s1.8-4 4-4c6.7 0 12.1-5.4 12.1-12.1 0-2.2 1.8-4 4-4s4 1.8 4 4c0 6.7 5.4 12.1 12.1 12.1 2.2 0 4 1.8 4 4s-1.8 4-4 4c-6.7 0-12.1 5.4-12.1 12.1 0 2.2-1.8 4-4 4zM91.1 46.3c1.5 1.1 2.9 2.5 4 4 1.1-1.5 2.5-2.9 4-4-1.5-1.1-2.9-2.5-4-4-1.1 1.5-2.5 2.9-4 4zm4 20.2c-2.2 0-4-1.8-4-4 0-6.7-5.4-12.1-12.1-12.1-2.2 0-4-1.8-4-4s1.8-4 4-4c6.7 0 12.1-5.4 12.1-12.1 0-2.2 1.8-4 4-4s4 1.8 4 4c0 6.7 5.4 12.1 12.1 12.1 2.2 0 4 1.8 4 4s-1.8 4-4 4c-6.7 0-12.1 5.4-12.1 12.1.1 2.2-1.7 4-4 4z"/>
    <path class="st0" d="M152.2 135.2c-2.4 0-4.4-1.9-4.4-4.4 0-26.4-17.9-47.9-39.8-47.9-2.4 0-4.4-1.9-4.4-4.4 0-2.4 2-4.4 4.4-4.4 26.9 0 48.7 25.4 48.7 56.6-.1 2.5-2.1 4.5-4.5 4.5zM237.3 135.2c-2.4 0-4.4-1.9-4.4-4.4 0-26.4-17.9-47.9-39.8-47.9-2.4 0-4.4-1.9-4.4-4.4 0-2.4 2-4.4 4.4-4.4 26.9 0 48.7 25.4 48.7 56.6-.1 2.5-2.1 4.5-4.5 4.5z"/>
    <circle cx="196.2" cy="158.5" r="8" style="fill:none;stroke:#515457;stroke-width:8;stroke-miterlimit:10"/>
    <path d="M191.7 168.7v10.7c0 5.8 9 5.8 9 0v-10.7c0-5.8-9-5.8-9 0z" style="fill:#515457"/>
</svg>
