<!-- Generator: Adobe Illustrator 25.0.0, SVG Export Plug-In  -->
<svg version="1.1" xmlns="http://www.w3.org/2000/svg" xmlns:xlink="http://www.w3.org/1999/xlink" x="0px" y="0px" width="260.9px"
	 height="257.2px" viewBox="0 0 260.9 257.2" style="overflow:visible;enable-background:new 0 0 260.9 257.2;"
	 xml:space="preserve">
<style type="text/css">
	.st0{clip-path:url(#SVGID_2_);fill:#515457;}
	.st1{clip-path:url(#SVGID_2_);fill:#EEEEEE;}
	.st2{clip-path:url(#SVGID_2_);fill:none;stroke:#000000;stroke-width:10;stroke-miterlimit:10;}
	.st3{clip-path:url(#SVGID_2_);}
	.st4{clip-path:url(#SVGID_4_);fill:#515457;}
	.st5{clip-path:url(#SVGID_4_);fill:#EEEEEE;}
	.st6{clip-path:url(#SVGID_4_);fill:none;stroke:#000000;stroke-width:10;stroke-miterlimit:10;}
	.st7{clip-path:url(#SVGID_4_);}
</style>
<defs>
</defs>
<g>
	<defs>
		<rect id="SVGID_1_" width="260.9" height="257.2"/>
	</defs>
	<clipPath id="SVGID_2_">
		<use xlink:href="#SVGID_1_"  style="overflow:visible;"/>
	</clipPath>
	<path class="st0" d="M125.5,166.3c1.7,4.3,0.5,10-2,13.8c-2.4,3.6-7.2,5.4-11,6.4c-3.2,1-3.1,3.2-3,4.1c1,5,9.2,4.7,13.7,6.1
		c6.2,2,10.5,8,12.2,11.6c2.2,4.5,3.3,10.6,0.5,17.3c-0.9,2-3.1,3.2-5.1,2.5c-2.3-0.8-3.3-3.3-2.4-5.4c1.9-4.3,1.3-9.2-1.7-13.5
		c-3-4.4-8-6-11.4-6.6c-7.1-1.3-12.8-5.3-13.7-10.6c-1-5.9,2.4-11.3,8.2-13.1l0.6-0.2c1.9-0.5,5.5-0.5,6.8-2.5
		c0.9-1.3,1.4-3.2,1-4.8c-0.7-2.2-2.3-3.7-10.8-3.3c-2.5,0.1-10-0.7-10-0.7c-12.3-1-25.9-2.7-26.6-15.8c-1-17.8,4-28.2-23.8-27.2
		c-3.4,0.1-6.8,0.2-10.1,0.3c-2.2,0-4.1-1.7-4.1-4c0-2.2,1.7-4.1,4-4.1c3.3-0.1,6.6-0.2,10-0.3c24.6-0.9,33,1.4,31.9,32
		C78,160.8,108,159,117,160.7c2.8,0.5,6.8,1.7,8.4,5.4C125.4,166.2,125.4,166.3,125.5,166.3L125.5,166.3z"/>
	<path class="st0" d="M135.4,84.1c-3.1-3.5-3.8-9.3-2.8-13.7c1-4.2,4.9-7.5,8.2-9.8c2.7-2,1.9-4.1,1.4-4.9
		c-2.7-4.3-10.3-1.3-14.9-1.1c-6.5,0.2-12.6-4-15.4-6.8c-3.6-3.5-6.7-8.9-6.3-16.1c0.1-2.2,1.8-4.1,4-4.1c2.4,0,4.2,2,4.1,4.3
		c-0.3,4.6,1.9,9.1,6.1,12.1c4.3,3.2,9.6,3,13,2.4c7.1-1.2,13.9,0.6,16.5,5.3c2.9,5.2,1.6,11.4-3.3,15.1l-0.5,0.3
		c-1.6,1.2-5,2.3-5.6,4.6c-0.4,1.5-0.3,3.5,0.7,4.8c1.4,1.8,3.4,2.7,11.3-0.5c2.3-0.9,9.7-2.7,9.7-2.7c11.9-3.2,25.3-6.2,30.4,5.8
		c7,16.4,5.8,27.8,31.6,17.5c3.2-1.3,6.3-2.5,9.5-3.7c2.1-0.8,4.4,0.3,5.2,2.3c0.8,2.1-0.3,4.4-2.3,5.2c-3.1,1.2-6.2,2.4-9.3,3.7
		c-22.9,9.2-31.5,9.8-40.9-19.3c-3.8-11.8-31.4,0.1-40.4,1.6c-2.8,0.5-6.9,0.7-9.7-2.3C135.5,84.2,135.5,84.1,135.4,84.1L135.4,84.1
		z"/>
	<path class="st1" d="M112,106.6c-1,0-2.1-0.4-2.9-1.2L76.9,73.2c-1.6-1.6-1.6-4.1,0-5.7c1.6-1.6,4.1-1.6,5.7,0l32.3,32.3
		c1.6,1.6,1.6,4.1,0,5.7C114.1,106.2,113.1,106.6,112,106.6"/>
	<path class="st1" d="M79.7,106.6c-1,0-2.1-0.4-2.9-1.2c-1.6-1.6-1.6-4.1,0-5.7l32.3-32.3c1.6-1.6,4.1-1.6,5.7,0
		c1.6,1.6,1.6,4.1,0,5.7l-32.3,32.3C81.8,106.2,80.8,106.6,79.7,106.6"/>
	<path class="st1" d="M145.8,154.1L145.8,154.1c-2.3,0.7-4.7-0.6-5.4-2.9l-4.2-14.1c-0.7-2.3,0.6-4.7,2.9-5.4
		c2.3-0.7,4.7,0.6,5.4,2.9l4.2,14.1C149.4,151,148.1,153.4,145.8,154.1"/>
	<path class="st1" d="M135.5,128.7L135.5,128.7c1.7-1.7,1.7-4.4,0-6.1l-5.7-5.7c-1.7-1.7-4.4-1.7-6.1,0c-1.7,1.7-1.7,4.4,0,6.1
		l5.7,5.7C131,130.4,133.8,130.4,135.5,128.7"/>
	<path class="st1" d="M170.7,164.6L170.7,164.6c-0.5,2.3-2.8,3.8-5.2,3.3l-14.4-3.2c-2.3-0.5-3.8-2.8-3.3-5.2
		c0.5-2.3,2.8-3.8,5.2-3.3l14.4,3.2C169.8,159.9,171.3,162.3,170.7,164.6"/>
	<path class="st1" d="M180.7,191.3L180.7,191.3c-2.3,0.6-4.7-0.8-5.2-3.1l-3.6-14.3c-0.6-2.3,0.8-4.7,3.1-5.2
		c2.3-0.6,4.7,0.8,5.2,3.1l3.6,14.3C184.4,188.4,183,190.7,180.7,191.3"/>
	<path class="st1" d="M189.3,211.2L189.3,211.2c2.2-0.9,3.2-3.5,2.3-5.7l-3.1-7.4c-0.9-2.2-3.5-3.2-5.7-2.3
		c-2.2,0.9-3.2,3.5-2.3,5.7l3.1,7.4C184.6,211.1,187.1,212.1,189.3,211.2"/>
	<rect x="30.7" y="29" class="st2" width="202.2" height="198"/>
	<rect y="15.1" class="st3" width="48.9" height="226.9"/>
	<rect x="6.9" y="0" class="st3" width="35" height="17.3"/>
	<rect x="6.9" y="239.9" class="st3" width="35" height="17.3"/>
	<rect x="212" y="15.1" class="st3" width="48.9" height="226.9"/>
	<rect x="218.9" class="st3" width="35" height="17.3"/>
	<rect x="218.9" y="239.9" class="st3" width="35" height="17.3"/>
</g>
</svg>
